<?xml version="1.0" encoding="utf-8" standalone="no"?>
<!DOCTYPE svg PUBLIC "-//W3C//DTD SVG 1.1//EN"
  "http://www.w3.org/Graphics/SVG/1.1/DTD/svg11.dtd">
<svg xmlns:xlink="http://www.w3.org/1999/xlink" width="917.772784pt" height="465.9875pt" viewBox="0 0 917.772784 465.9875" xmlns="http://www.w3.org/2000/svg" version="1.1">
 <metadata>
  <rdf:RDF xmlns:dc="http://purl.org/dc/elements/1.1/" xmlns:cc="http://creativecommons.org/ns#" xmlns:rdf="http://www.w3.org/1999/02/22-rdf-syntax-ns#">
   <cc:Work>
    <dc:type rdf:resource="http://purl.org/dc/dcmitype/StillImage"/>
    <dc:date>2025-11-24T08:45:20.633168</dc:date>
    <dc:format>image/svg+xml</dc:format>
    <dc:creator>
     <cc:Agent>
      <dc:title>Matplotlib v3.10.7, https://matplotlib.org/</dc:title>
     </cc:Agent>
    </dc:creator>
   </cc:Work>
  </rdf:RDF>
 </metadata>
 <defs>
  <style type="text/css">*{stroke-linejoin: round; stroke-linecap: butt}</style>
 </defs>
 <g id="figure_1">
  <g id="patch_1">
   <path d="M 0 465.9875 
L 917.772784 465.9875 
L 917.772784 0 
L 0 0 
z
" style="fill: #ffffff"/>
  </g>
  <g id="axes_1">
   <g id="patch_2">
    <path d="M 123.135 373.23375 
L 904.335 373.23375 
L 904.335 40.59375 
L 123.135 40.59375 
z
" style="fill: #ffffff"/>
   </g>
   <g id="matplotlib.axis_1">
    <g id="xtick_1">
     <g id="line2d_1">
      <defs>
       <path id="mc7cd3c56f2" d="M 0 0 
L 0 3.5 
" style="stroke: #000000; stroke-width: 0.8"/>
      </defs>
      <g>
       <use xlink:href="#mc7cd3c56f2" x="158.644091" y="373.23375" style="stroke: #000000; stroke-width: 0.8"/>
      </g>
     </g>
     <g id="text_1">
      <!-- 1 -->
      <g transform="translate(144.728466 410.6275) scale(0.4 -0.4)">
       <defs>
        <path id="DejaVuSans-Bold-31" d="M 750 831 
L 1813 831 
L 1813 3847 
L 722 3622 
L 722 4441 
L 1806 4666 
L 2950 4666 
L 2950 831 
L 4013 831 
L 4013 0 
L 750 0 
L 750 831 
z
" transform="scale(0.015625)"/>
       </defs>
       <use xlink:href="#DejaVuSans-Bold-31"/>
      </g>
     </g>
    </g>
    <g id="xtick_2">
     <g id="line2d_2">
      <g>
       <use xlink:href="#mc7cd3c56f2" x="216.12617" y="373.23375" style="stroke: #000000; stroke-width: 0.8"/>
      </g>
     </g>
     <g id="text_2">
      <!-- 32 -->
      <g transform="translate(188.29492 410.6275) scale(0.4 -0.4)">
       <defs>
        <path id="DejaVuSans-Bold-33" d="M 2981 2516 
Q 3453 2394 3698 2092 
Q 3944 1791 3944 1325 
Q 3944 631 3412 270 
Q 2881 -91 1863 -91 
Q 1503 -91 1142 -33 
Q 781 25 428 141 
L 428 1069 
Q 766 900 1098 814 
Q 1431 728 1753 728 
Q 2231 728 2486 893 
Q 2741 1059 2741 1369 
Q 2741 1688 2480 1852 
Q 2219 2016 1709 2016 
L 1228 2016 
L 1228 2791 
L 1734 2791 
Q 2188 2791 2409 2933 
Q 2631 3075 2631 3366 
Q 2631 3634 2415 3781 
Q 2200 3928 1806 3928 
Q 1516 3928 1219 3862 
Q 922 3797 628 3669 
L 628 4550 
Q 984 4650 1334 4700 
Q 1684 4750 2022 4750 
Q 2931 4750 3382 4451 
Q 3834 4153 3834 3553 
Q 3834 3144 3618 2883 
Q 3403 2622 2981 2516 
z
" transform="scale(0.015625)"/>
        <path id="DejaVuSans-Bold-32" d="M 1844 884 
L 3897 884 
L 3897 0 
L 506 0 
L 506 884 
L 2209 2388 
Q 2438 2594 2547 2791 
Q 2656 2988 2656 3200 
Q 2656 3528 2436 3728 
Q 2216 3928 1850 3928 
Q 1569 3928 1234 3808 
Q 900 3688 519 3450 
L 519 4475 
Q 925 4609 1322 4679 
Q 1719 4750 2100 4750 
Q 2938 4750 3402 4381 
Q 3866 4013 3866 3353 
Q 3866 2972 3669 2642 
Q 3472 2313 2841 1759 
L 1844 884 
z
" transform="scale(0.015625)"/>
       </defs>
       <use xlink:href="#DejaVuSans-Bold-33"/>
       <use xlink:href="#DejaVuSans-Bold-32" transform="translate(69.580078 0)"/>
      </g>
     </g>
    </g>
    <g id="xtick_3">
     <g id="line2d_3">
      <g>
       <use xlink:href="#mc7cd3c56f2" x="275.46251" y="373.23375" style="stroke: #000000; stroke-width: 0.8"/>
      </g>
     </g>
     <g id="text_3">
      <!-- 64 -->
      <g transform="translate(247.63126 410.6275) scale(0.4 -0.4)">
       <defs>
        <path id="DejaVuSans-Bold-36" d="M 2316 2303 
Q 2000 2303 1842 2098 
Q 1684 1894 1684 1484 
Q 1684 1075 1842 870 
Q 2000 666 2316 666 
Q 2634 666 2792 870 
Q 2950 1075 2950 1484 
Q 2950 1894 2792 2098 
Q 2634 2303 2316 2303 
z
M 3803 4544 
L 3803 3681 
Q 3506 3822 3243 3889 
Q 2981 3956 2731 3956 
Q 2194 3956 1894 3657 
Q 1594 3359 1544 2772 
Q 1750 2925 1990 3001 
Q 2231 3078 2516 3078 
Q 3231 3078 3670 2659 
Q 4109 2241 4109 1563 
Q 4109 813 3618 361 
Q 3128 -91 2303 -91 
Q 1394 -91 895 523 
Q 397 1138 397 2266 
Q 397 3422 980 4083 
Q 1563 4744 2578 4744 
Q 2900 4744 3203 4694 
Q 3506 4644 3803 4544 
z
" transform="scale(0.015625)"/>
        <path id="DejaVuSans-Bold-34" d="M 2356 3675 
L 1038 1722 
L 2356 1722 
L 2356 3675 
z
M 2156 4666 
L 3494 4666 
L 3494 1722 
L 4159 1722 
L 4159 850 
L 3494 850 
L 3494 0 
L 2356 0 
L 2356 850 
L 288 850 
L 288 1881 
L 2156 4666 
z
" transform="scale(0.015625)"/>
       </defs>
       <use xlink:href="#DejaVuSans-Bold-36"/>
       <use xlink:href="#DejaVuSans-Bold-34" transform="translate(69.580078 0)"/>
      </g>
     </g>
    </g>
    <g id="xtick_4">
     <g id="line2d_4">
      <g>
       <use xlink:href="#mc7cd3c56f2" x="394.13519" y="373.23375" style="stroke: #000000; stroke-width: 0.8"/>
      </g>
     </g>
     <g id="text_4">
      <!-- 128 -->
      <g transform="translate(352.388315 410.6275) scale(0.4 -0.4)">
       <defs>
        <path id="DejaVuSans-Bold-38" d="M 2228 2088 
Q 1891 2088 1709 1903 
Q 1528 1719 1528 1375 
Q 1528 1031 1709 848 
Q 1891 666 2228 666 
Q 2563 666 2741 848 
Q 2919 1031 2919 1375 
Q 2919 1722 2741 1905 
Q 2563 2088 2228 2088 
z
M 1350 2484 
Q 925 2613 709 2878 
Q 494 3144 494 3541 
Q 494 4131 934 4440 
Q 1375 4750 2228 4750 
Q 3075 4750 3515 4442 
Q 3956 4134 3956 3541 
Q 3956 3144 3739 2878 
Q 3522 2613 3097 2484 
Q 3572 2353 3814 2058 
Q 4056 1763 4056 1313 
Q 4056 619 3595 264 
Q 3134 -91 2228 -91 
Q 1319 -91 855 264 
Q 391 619 391 1313 
Q 391 1763 633 2058 
Q 875 2353 1350 2484 
z
M 1631 3419 
Q 1631 3141 1786 2991 
Q 1941 2841 2228 2841 
Q 2509 2841 2662 2991 
Q 2816 3141 2816 3419 
Q 2816 3697 2662 3845 
Q 2509 3994 2228 3994 
Q 1941 3994 1786 3844 
Q 1631 3694 1631 3419 
z
" transform="scale(0.015625)"/>
       </defs>
       <use xlink:href="#DejaVuSans-Bold-31"/>
       <use xlink:href="#DejaVuSans-Bold-32" transform="translate(69.580078 0)"/>
       <use xlink:href="#DejaVuSans-Bold-38" transform="translate(139.160156 0)"/>
      </g>
     </g>
    </g>
    <g id="xtick_5">
     <g id="line2d_5">
      <g>
       <use xlink:href="#mc7cd3c56f2" x="631.480549" y="373.23375" style="stroke: #000000; stroke-width: 0.8"/>
      </g>
     </g>
     <g id="text_5">
      <!-- 256 -->
      <g transform="translate(589.733674 410.6275) scale(0.4 -0.4)">
       <defs>
        <path id="DejaVuSans-Bold-35" d="M 678 4666 
L 3669 4666 
L 3669 3781 
L 1638 3781 
L 1638 3059 
Q 1775 3097 1914 3117 
Q 2053 3138 2203 3138 
Q 3056 3138 3531 2711 
Q 4006 2284 4006 1522 
Q 4006 766 3489 337 
Q 2972 -91 2053 -91 
Q 1656 -91 1267 -14 
Q 878 63 494 219 
L 494 1166 
Q 875 947 1217 837 
Q 1559 728 1863 728 
Q 2300 728 2551 942 
Q 2803 1156 2803 1522 
Q 2803 1891 2551 2103 
Q 2300 2316 1863 2316 
Q 1603 2316 1309 2248 
Q 1016 2181 678 2041 
L 678 4666 
z
" transform="scale(0.015625)"/>
       </defs>
       <use xlink:href="#DejaVuSans-Bold-32"/>
       <use xlink:href="#DejaVuSans-Bold-35" transform="translate(69.580078 0)"/>
       <use xlink:href="#DejaVuSans-Bold-36" transform="translate(139.160156 0)"/>
      </g>
     </g>
    </g>
    <g id="xtick_6">
     <g id="line2d_6">
      <g>
       <use xlink:href="#mc7cd3c56f2" x="868.825909" y="373.23375" style="stroke: #000000; stroke-width: 0.8"/>
      </g>
     </g>
     <g id="text_6">
      <!-- 384 -->
      <g transform="translate(827.079034 410.6275) scale(0.4 -0.4)">
       <use xlink:href="#DejaVuSans-Bold-33"/>
       <use xlink:href="#DejaVuSans-Bold-38" transform="translate(69.580078 0)"/>
       <use xlink:href="#DejaVuSans-Bold-34" transform="translate(139.160156 0)"/>
      </g>
     </g>
    </g>
    <g id="text_7">
     <!-- Threads -->
     <g transform="translate(431.8125 451.300625) scale(0.36 -0.36)">
      <defs>
       <path id="DejaVuSans-Bold-54" d="M 31 4666 
L 4331 4666 
L 4331 3756 
L 2784 3756 
L 2784 0 
L 1581 0 
L 1581 3756 
L 31 3756 
L 31 4666 
z
" transform="scale(0.015625)"/>
       <path id="DejaVuSans-Bold-68" d="M 4056 2131 
L 4056 0 
L 2931 0 
L 2931 347 
L 2931 1625 
Q 2931 2084 2911 2256 
Q 2891 2428 2841 2509 
Q 2775 2619 2662 2680 
Q 2550 2741 2406 2741 
Q 2056 2741 1856 2470 
Q 1656 2200 1656 1722 
L 1656 0 
L 538 0 
L 538 4863 
L 1656 4863 
L 1656 2988 
Q 1909 3294 2193 3439 
Q 2478 3584 2822 3584 
Q 3428 3584 3742 3212 
Q 4056 2841 4056 2131 
z
" transform="scale(0.015625)"/>
       <path id="DejaVuSans-Bold-72" d="M 3138 2547 
Q 2991 2616 2845 2648 
Q 2700 2681 2553 2681 
Q 2122 2681 1889 2404 
Q 1656 2128 1656 1613 
L 1656 0 
L 538 0 
L 538 3500 
L 1656 3500 
L 1656 2925 
Q 1872 3269 2151 3426 
Q 2431 3584 2822 3584 
Q 2878 3584 2943 3579 
Q 3009 3575 3134 3559 
L 3138 2547 
z
" transform="scale(0.015625)"/>
       <path id="DejaVuSans-Bold-65" d="M 4031 1759 
L 4031 1441 
L 1416 1441 
Q 1456 1047 1700 850 
Q 1944 653 2381 653 
Q 2734 653 3104 758 
Q 3475 863 3866 1075 
L 3866 213 
Q 3469 63 3072 -14 
Q 2675 -91 2278 -91 
Q 1328 -91 801 392 
Q 275 875 275 1747 
Q 275 2603 792 3093 
Q 1309 3584 2216 3584 
Q 3041 3584 3536 3087 
Q 4031 2591 4031 1759 
z
M 2881 2131 
Q 2881 2450 2695 2645 
Q 2509 2841 2209 2841 
Q 1884 2841 1681 2658 
Q 1478 2475 1428 2131 
L 2881 2131 
z
" transform="scale(0.015625)"/>
       <path id="DejaVuSans-Bold-61" d="M 2106 1575 
Q 1756 1575 1579 1456 
Q 1403 1338 1403 1106 
Q 1403 894 1545 773 
Q 1688 653 1941 653 
Q 2256 653 2472 879 
Q 2688 1106 2688 1447 
L 2688 1575 
L 2106 1575 
z
M 3816 1997 
L 3816 0 
L 2688 0 
L 2688 519 
Q 2463 200 2181 54 
Q 1900 -91 1497 -91 
Q 953 -91 614 226 
Q 275 544 275 1050 
Q 275 1666 698 1953 
Q 1122 2241 2028 2241 
L 2688 2241 
L 2688 2328 
Q 2688 2594 2478 2717 
Q 2269 2841 1825 2841 
Q 1466 2841 1156 2769 
Q 847 2697 581 2553 
L 581 3406 
Q 941 3494 1303 3539 
Q 1666 3584 2028 3584 
Q 2975 3584 3395 3211 
Q 3816 2838 3816 1997 
z
" transform="scale(0.015625)"/>
       <path id="DejaVuSans-Bold-64" d="M 2919 2988 
L 2919 4863 
L 4044 4863 
L 4044 0 
L 2919 0 
L 2919 506 
Q 2688 197 2409 53 
Q 2131 -91 1766 -91 
Q 1119 -91 703 423 
Q 288 938 288 1747 
Q 288 2556 703 3070 
Q 1119 3584 1766 3584 
Q 2128 3584 2408 3439 
Q 2688 3294 2919 2988 
z
M 2181 722 
Q 2541 722 2730 984 
Q 2919 1247 2919 1747 
Q 2919 2247 2730 2509 
Q 2541 2772 2181 2772 
Q 1825 2772 1636 2509 
Q 1447 2247 1447 1747 
Q 1447 1247 1636 984 
Q 1825 722 2181 722 
z
" transform="scale(0.015625)"/>
       <path id="DejaVuSans-Bold-73" d="M 3272 3391 
L 3272 2541 
Q 2913 2691 2578 2766 
Q 2244 2841 1947 2841 
Q 1628 2841 1473 2761 
Q 1319 2681 1319 2516 
Q 1319 2381 1436 2309 
Q 1553 2238 1856 2203 
L 2053 2175 
Q 2913 2066 3209 1816 
Q 3506 1566 3506 1031 
Q 3506 472 3093 190 
Q 2681 -91 1863 -91 
Q 1516 -91 1145 -36 
Q 775 19 384 128 
L 384 978 
Q 719 816 1070 734 
Q 1422 653 1784 653 
Q 2113 653 2278 743 
Q 2444 834 2444 1013 
Q 2444 1163 2330 1236 
Q 2216 1309 1875 1350 
L 1678 1375 
Q 931 1469 631 1722 
Q 331 1975 331 2491 
Q 331 3047 712 3315 
Q 1094 3584 1881 3584 
Q 2191 3584 2531 3537 
Q 2872 3491 3272 3391 
z
" transform="scale(0.015625)"/>
      </defs>
      <use xlink:href="#DejaVuSans-Bold-54"/>
      <use xlink:href="#DejaVuSans-Bold-68" transform="translate(68.212891 0)"/>
      <use xlink:href="#DejaVuSans-Bold-72" transform="translate(139.404297 0)"/>
      <use xlink:href="#DejaVuSans-Bold-65" transform="translate(188.720703 0)"/>
      <use xlink:href="#DejaVuSans-Bold-61" transform="translate(256.542969 0)"/>
      <use xlink:href="#DejaVuSans-Bold-64" transform="translate(324.023438 0)"/>
      <use xlink:href="#DejaVuSans-Bold-73" transform="translate(395.605469 0)"/>
     </g>
    </g>
   </g>
   <g id="matplotlib.axis_2">
    <g id="ytick_1">
     <g id="line2d_7">
      <defs>
       <path id="mcfc64936c5" d="M 0 0 
L -3.5 0 
" style="stroke: #000000; stroke-width: 0.8"/>
      </defs>
      <g>
       <use xlink:href="#mcfc64936c5" x="123.135" y="358.180882" style="stroke: #000000; stroke-width: 0.8"/>
      </g>
     </g>
     <g id="text_8">
      <!-- $\mathdefault{0.0}$ -->
      <g transform="translate(55.615 371.098226) scale(0.34 -0.34)">
       <defs>
        <path id="DejaVuSans-Bold-30" d="M 2944 2338 
Q 2944 3213 2780 3570 
Q 2616 3928 2228 3928 
Q 1841 3928 1675 3570 
Q 1509 3213 1509 2338 
Q 1509 1453 1675 1090 
Q 1841 728 2228 728 
Q 2613 728 2778 1090 
Q 2944 1453 2944 2338 
z
M 4147 2328 
Q 4147 1169 3647 539 
Q 3147 -91 2228 -91 
Q 1306 -91 806 539 
Q 306 1169 306 2328 
Q 306 3491 806 4120 
Q 1306 4750 2228 4750 
Q 3147 4750 3647 4120 
Q 4147 3491 4147 2328 
z
" transform="scale(0.015625)"/>
        <path id="DejaVuSans-Bold-2e" d="M 653 1209 
L 1778 1209 
L 1778 0 
L 653 0 
L 653 1209 
z
" transform="scale(0.015625)"/>
       </defs>
       <use xlink:href="#DejaVuSans-Bold-30" transform="translate(0 0.78125)"/>
       <use xlink:href="#DejaVuSans-Bold-2e" transform="translate(69.580078 0.78125)"/>
       <use xlink:href="#DejaVuSans-Bold-30" transform="translate(107.568359 0.78125)"/>
      </g>
     </g>
    </g>
    <g id="ytick_2">
     <g id="line2d_8">
      <g>
       <use xlink:href="#mcfc64936c5" x="123.135" y="304.901673" style="stroke: #000000; stroke-width: 0.8"/>
      </g>
     </g>
     <g id="text_9">
      <!-- $\mathdefault{0.5}$ -->
      <g transform="translate(55.615 317.819017) scale(0.34 -0.34)">
       <use xlink:href="#DejaVuSans-Bold-30" transform="translate(0 0.78125)"/>
       <use xlink:href="#DejaVuSans-Bold-2e" transform="translate(69.580078 0.78125)"/>
       <use xlink:href="#DejaVuSans-Bold-35" transform="translate(107.568359 0.78125)"/>
      </g>
     </g>
    </g>
    <g id="ytick_3">
     <g id="line2d_9">
      <g>
       <use xlink:href="#mcfc64936c5" x="123.135" y="251.622465" style="stroke: #000000; stroke-width: 0.8"/>
      </g>
     </g>
     <g id="text_10">
      <!-- $\mathdefault{1.0}$ -->
      <g transform="translate(55.615 264.539809) scale(0.34 -0.34)">
       <use xlink:href="#DejaVuSans-Bold-31" transform="translate(0 0.78125)"/>
       <use xlink:href="#DejaVuSans-Bold-2e" transform="translate(69.580078 0.78125)"/>
       <use xlink:href="#DejaVuSans-Bold-30" transform="translate(107.568359 0.78125)"/>
      </g>
     </g>
    </g>
    <g id="ytick_4">
     <g id="line2d_10">
      <g>
       <use xlink:href="#mcfc64936c5" x="123.135" y="198.343257" style="stroke: #000000; stroke-width: 0.8"/>
      </g>
     </g>
     <g id="text_11">
      <!-- $\mathdefault{1.5}$ -->
      <g transform="translate(55.615 211.2606) scale(0.34 -0.34)">
       <use xlink:href="#DejaVuSans-Bold-31" transform="translate(0 0.09375)"/>
       <use xlink:href="#DejaVuSans-Bold-2e" transform="translate(69.580078 0.09375)"/>
       <use xlink:href="#DejaVuSans-Bold-35" transform="translate(107.568359 0.09375)"/>
      </g>
     </g>
    </g>
    <g id="ytick_5">
     <g id="line2d_11">
      <g>
       <use xlink:href="#mcfc64936c5" x="123.135" y="145.064048" style="stroke: #000000; stroke-width: 0.8"/>
      </g>
     </g>
     <g id="text_12">
      <!-- $\mathdefault{2.0}$ -->
      <g transform="translate(55.615 157.981392) scale(0.34 -0.34)">
       <use xlink:href="#DejaVuSans-Bold-32" transform="translate(0 0.78125)"/>
       <use xlink:href="#DejaVuSans-Bold-2e" transform="translate(69.580078 0.78125)"/>
       <use xlink:href="#DejaVuSans-Bold-30" transform="translate(107.568359 0.78125)"/>
      </g>
     </g>
    </g>
    <g id="ytick_6">
     <g id="line2d_12">
      <g>
       <use xlink:href="#mcfc64936c5" x="123.135" y="91.78484" style="stroke: #000000; stroke-width: 0.8"/>
      </g>
     </g>
     <g id="text_13">
      <!-- $\mathdefault{2.5}$ -->
      <g transform="translate(55.615 104.702183) scale(0.34 -0.34)">
       <use xlink:href="#DejaVuSans-Bold-32" transform="translate(0 0.78125)"/>
       <use xlink:href="#DejaVuSans-Bold-2e" transform="translate(69.580078 0.78125)"/>
       <use xlink:href="#DejaVuSans-Bold-35" transform="translate(107.568359 0.78125)"/>
      </g>
     </g>
    </g>
    <g id="text_14">
     <!-- Not-Yet-Reclaimed Objects -->
     <g transform="translate(25.43625 385.86) rotate(-90) scale(0.24 -0.24)">
      <defs>
       <path id="DejaVuSans-Bold-4e" d="M 588 4666 
L 1931 4666 
L 3628 1466 
L 3628 4666 
L 4769 4666 
L 4769 0 
L 3425 0 
L 1728 3200 
L 1728 0 
L 588 0 
L 588 4666 
z
" transform="scale(0.015625)"/>
       <path id="DejaVuSans-Bold-6f" d="M 2203 2784 
Q 1831 2784 1636 2517 
Q 1441 2250 1441 1747 
Q 1441 1244 1636 976 
Q 1831 709 2203 709 
Q 2569 709 2762 976 
Q 2956 1244 2956 1747 
Q 2956 2250 2762 2517 
Q 2569 2784 2203 2784 
z
M 2203 3584 
Q 3106 3584 3614 3096 
Q 4122 2609 4122 1747 
Q 4122 884 3614 396 
Q 3106 -91 2203 -91 
Q 1297 -91 786 396 
Q 275 884 275 1747 
Q 275 2609 786 3096 
Q 1297 3584 2203 3584 
z
" transform="scale(0.015625)"/>
       <path id="DejaVuSans-Bold-74" d="M 1759 4494 
L 1759 3500 
L 2913 3500 
L 2913 2700 
L 1759 2700 
L 1759 1216 
Q 1759 972 1856 886 
Q 1953 800 2241 800 
L 2816 800 
L 2816 0 
L 1856 0 
Q 1194 0 917 276 
Q 641 553 641 1216 
L 641 2700 
L 84 2700 
L 84 3500 
L 641 3500 
L 641 4494 
L 1759 4494 
z
" transform="scale(0.015625)"/>
       <path id="DejaVuSans-Bold-2d" d="M 347 2297 
L 2309 2297 
L 2309 1388 
L 347 1388 
L 347 2297 
z
" transform="scale(0.015625)"/>
       <path id="DejaVuSans-Bold-59" d="M -63 4666 
L 1253 4666 
L 2316 3003 
L 3378 4666 
L 4697 4666 
L 2919 1966 
L 2919 0 
L 1716 0 
L 1716 1966 
L -63 4666 
z
" transform="scale(0.015625)"/>
       <path id="DejaVuSans-Bold-52" d="M 2297 2597 
Q 2675 2597 2839 2737 
Q 3003 2878 3003 3200 
Q 3003 3519 2839 3656 
Q 2675 3794 2297 3794 
L 1791 3794 
L 1791 2597 
L 2297 2597 
z
M 1791 1766 
L 1791 0 
L 588 0 
L 588 4666 
L 2425 4666 
Q 3347 4666 3776 4356 
Q 4206 4047 4206 3378 
Q 4206 2916 3982 2619 
Q 3759 2322 3309 2181 
Q 3556 2125 3751 1926 
Q 3947 1728 4147 1325 
L 4800 0 
L 3519 0 
L 2950 1159 
Q 2778 1509 2601 1637 
Q 2425 1766 2131 1766 
L 1791 1766 
z
" transform="scale(0.015625)"/>
       <path id="DejaVuSans-Bold-63" d="M 3366 3391 
L 3366 2478 
Q 3138 2634 2908 2709 
Q 2678 2784 2431 2784 
Q 1963 2784 1702 2511 
Q 1441 2238 1441 1747 
Q 1441 1256 1702 982 
Q 1963 709 2431 709 
Q 2694 709 2930 787 
Q 3166 866 3366 1019 
L 3366 103 
Q 3103 6 2833 -42 
Q 2563 -91 2291 -91 
Q 1344 -91 809 395 
Q 275 881 275 1747 
Q 275 2613 809 3098 
Q 1344 3584 2291 3584 
Q 2566 3584 2833 3536 
Q 3100 3488 3366 3391 
z
" transform="scale(0.015625)"/>
       <path id="DejaVuSans-Bold-6c" d="M 538 4863 
L 1656 4863 
L 1656 0 
L 538 0 
L 538 4863 
z
" transform="scale(0.015625)"/>
       <path id="DejaVuSans-Bold-69" d="M 538 3500 
L 1656 3500 
L 1656 0 
L 538 0 
L 538 3500 
z
M 538 4863 
L 1656 4863 
L 1656 3950 
L 538 3950 
L 538 4863 
z
" transform="scale(0.015625)"/>
       <path id="DejaVuSans-Bold-6d" d="M 3781 2919 
Q 3994 3244 4286 3414 
Q 4578 3584 4928 3584 
Q 5531 3584 5847 3212 
Q 6163 2841 6163 2131 
L 6163 0 
L 5038 0 
L 5038 1825 
Q 5041 1866 5042 1909 
Q 5044 1953 5044 2034 
Q 5044 2406 4934 2573 
Q 4825 2741 4581 2741 
Q 4263 2741 4089 2478 
Q 3916 2216 3909 1719 
L 3909 0 
L 2784 0 
L 2784 1825 
Q 2784 2406 2684 2573 
Q 2584 2741 2328 2741 
Q 2006 2741 1831 2477 
Q 1656 2213 1656 1722 
L 1656 0 
L 531 0 
L 531 3500 
L 1656 3500 
L 1656 2988 
Q 1863 3284 2130 3434 
Q 2397 3584 2719 3584 
Q 3081 3584 3359 3409 
Q 3638 3234 3781 2919 
z
" transform="scale(0.015625)"/>
       <path id="DejaVuSans-Bold-20" transform="scale(0.015625)"/>
       <path id="DejaVuSans-Bold-4f" d="M 2719 3878 
Q 2169 3878 1866 3472 
Q 1563 3066 1563 2328 
Q 1563 1594 1866 1187 
Q 2169 781 2719 781 
Q 3272 781 3575 1187 
Q 3878 1594 3878 2328 
Q 3878 3066 3575 3472 
Q 3272 3878 2719 3878 
z
M 2719 4750 
Q 3844 4750 4481 4106 
Q 5119 3463 5119 2328 
Q 5119 1197 4481 553 
Q 3844 -91 2719 -91 
Q 1597 -91 958 553 
Q 319 1197 319 2328 
Q 319 3463 958 4106 
Q 1597 4750 2719 4750 
z
" transform="scale(0.015625)"/>
       <path id="DejaVuSans-Bold-62" d="M 2400 722 
Q 2759 722 2948 984 
Q 3138 1247 3138 1747 
Q 3138 2247 2948 2509 
Q 2759 2772 2400 2772 
Q 2041 2772 1848 2508 
Q 1656 2244 1656 1747 
Q 1656 1250 1848 986 
Q 2041 722 2400 722 
z
M 1656 2988 
Q 1888 3294 2169 3439 
Q 2450 3584 2816 3584 
Q 3463 3584 3878 3070 
Q 4294 2556 4294 1747 
Q 4294 938 3878 423 
Q 3463 -91 2816 -91 
Q 2450 -91 2169 54 
Q 1888 200 1656 506 
L 1656 0 
L 538 0 
L 538 4863 
L 1656 4863 
L 1656 2988 
z
" transform="scale(0.015625)"/>
       <path id="DejaVuSans-Bold-6a" d="M 538 3500 
L 1656 3500 
L 1656 63 
Q 1656 -641 1318 -1011 
Q 981 -1381 341 -1381 
L -213 -1381 
L -213 -647 
L -19 -647 
Q 300 -647 419 -503 
Q 538 -359 538 63 
L 538 3500 
z
M 538 4863 
L 1656 4863 
L 1656 3950 
L 538 3950 
L 538 4863 
z
" transform="scale(0.015625)"/>
      </defs>
      <use xlink:href="#DejaVuSans-Bold-4e"/>
      <use xlink:href="#DejaVuSans-Bold-6f" transform="translate(83.691406 0)"/>
      <use xlink:href="#DejaVuSans-Bold-74" transform="translate(152.392578 0)"/>
      <use xlink:href="#DejaVuSans-Bold-2d" transform="translate(200.195312 0)"/>
      <use xlink:href="#DejaVuSans-Bold-59" transform="translate(226.949219 0)"/>
      <use xlink:href="#DejaVuSans-Bold-65" transform="translate(290.236328 0)"/>
      <use xlink:href="#DejaVuSans-Bold-74" transform="translate(358.058594 0)"/>
      <use xlink:href="#DejaVuSans-Bold-2d" transform="translate(405.861328 0)"/>
      <use xlink:href="#DejaVuSans-Bold-52" transform="translate(447.365234 0)"/>
      <use xlink:href="#DejaVuSans-Bold-65" transform="translate(524.367188 0)"/>
      <use xlink:href="#DejaVuSans-Bold-63" transform="translate(592.189453 0)"/>
      <use xlink:href="#DejaVuSans-Bold-6c" transform="translate(651.466797 0)"/>
      <use xlink:href="#DejaVuSans-Bold-61" transform="translate(685.744141 0)"/>
      <use xlink:href="#DejaVuSans-Bold-69" transform="translate(753.224609 0)"/>
      <use xlink:href="#DejaVuSans-Bold-6d" transform="translate(787.501953 0)"/>
      <use xlink:href="#DejaVuSans-Bold-65" transform="translate(891.701172 0)"/>
      <use xlink:href="#DejaVuSans-Bold-64" transform="translate(959.523438 0)"/>
      <use xlink:href="#DejaVuSans-Bold-20" transform="translate(1031.105469 0)"/>
      <use xlink:href="#DejaVuSans-Bold-4f" transform="translate(1065.919922 0)"/>
      <use xlink:href="#DejaVuSans-Bold-62" transform="translate(1150.929688 0)"/>
      <use xlink:href="#DejaVuSans-Bold-6a" transform="translate(1222.511719 0)"/>
      <use xlink:href="#DejaVuSans-Bold-65" transform="translate(1256.789062 0)"/>
      <use xlink:href="#DejaVuSans-Bold-63" transform="translate(1324.611328 0)"/>
      <use xlink:href="#DejaVuSans-Bold-74" transform="translate(1383.888672 0)"/>
      <use xlink:href="#DejaVuSans-Bold-73" transform="translate(1431.691406 0)"/>
     </g>
    </g>
    <g id="text_15">
     <!-- $\times\mathdefault{10^{5}}\mathdefault{}$ -->
     <g transform="translate(123.135 37.59375) scale(0.4 -0.4)">
      <defs>
       <path id="DejaVuSans-d7" d="M 4488 3438 
L 3059 2003 
L 4488 575 
L 4116 197 
L 2681 1631 
L 1247 197 
L 878 575 
L 2303 2003 
L 878 3438 
L 1247 3816 
L 2681 2381 
L 4116 3816 
L 4488 3438 
z
" transform="scale(0.015625)"/>
      </defs>
      <use xlink:href="#DejaVuSans-d7" transform="translate(0 0.684375)"/>
      <use xlink:href="#DejaVuSans-Bold-31" transform="translate(83.789062 0.684375)"/>
      <use xlink:href="#DejaVuSans-Bold-30" transform="translate(153.369141 0.684375)"/>
      <use xlink:href="#DejaVuSans-Bold-35" transform="translate(223.90625 38.965625) scale(0.7)"/>
     </g>
    </g>
   </g>
   <g id="line2d_13">
    <path d="M 158.644091 358.11375 
L 216.12617 355.71512 
L 275.46251 349.930064 
L 394.13519 307.487846 
L 631.480549 62.109386 
L 868.825909 204.092083 
" clip-path="url(#p0233ef2883)" style="fill: none; stroke-dasharray: 5.55,2.4; stroke-dashoffset: 0; stroke: #ffd700; stroke-width: 1.5"/>
    <defs>
     <path id="m0e2bfc6f89" d="M -4 4 
L 4 4 
L 4 -4 
L -4 -4 
z
" style="stroke: #ffd700; stroke-linejoin: miter"/>
    </defs>
    <g clip-path="url(#p0233ef2883)">
     <use xlink:href="#m0e2bfc6f89" x="158.644091" y="358.11375" style="fill: #ffd700; stroke: #ffd700; stroke-linejoin: miter"/>
     <use xlink:href="#m0e2bfc6f89" x="216.12617" y="355.71512" style="fill: #ffd700; stroke: #ffd700; stroke-linejoin: miter"/>
     <use xlink:href="#m0e2bfc6f89" x="275.46251" y="349.930064" style="fill: #ffd700; stroke: #ffd700; stroke-linejoin: miter"/>
     <use xlink:href="#m0e2bfc6f89" x="394.13519" y="307.487846" style="fill: #ffd700; stroke: #ffd700; stroke-linejoin: miter"/>
     <use xlink:href="#m0e2bfc6f89" x="631.480549" y="62.109386" style="fill: #ffd700; stroke: #ffd700; stroke-linejoin: miter"/>
     <use xlink:href="#m0e2bfc6f89" x="868.825909" y="204.092083" style="fill: #ffd700; stroke: #ffd700; stroke-linejoin: miter"/>
    </g>
   </g>
   <g id="line2d_14">
    <path d="M 158.644091 358.11375 
L 216.12617 355.691677 
L 275.46251 349.772357 
L 394.13519 306.812266 
L 631.480549 61.309132 
L 868.825909 212.092489 
" clip-path="url(#p0233ef2883)" style="fill: none; stroke-dasharray: 9.6,2.4,1.5,2.4; stroke-dashoffset: 0; stroke: #008000; stroke-width: 1.5"/>
    <defs>
     <path id="m239a8bb0cf" d="M 0 -4 
L -4 4 
L 4 4 
z
" style="stroke: #008000; stroke-linejoin: miter"/>
    </defs>
    <g clip-path="url(#p0233ef2883)">
     <use xlink:href="#m239a8bb0cf" x="158.644091" y="358.11375" style="fill: #008000; stroke: #008000; stroke-linejoin: miter"/>
     <use xlink:href="#m239a8bb0cf" x="216.12617" y="355.691677" style="fill: #008000; stroke: #008000; stroke-linejoin: miter"/>
     <use xlink:href="#m239a8bb0cf" x="275.46251" y="349.772357" style="fill: #008000; stroke: #008000; stroke-linejoin: miter"/>
     <use xlink:href="#m239a8bb0cf" x="394.13519" y="306.812266" style="fill: #008000; stroke: #008000; stroke-linejoin: miter"/>
     <use xlink:href="#m239a8bb0cf" x="631.480549" y="61.309132" style="fill: #008000; stroke: #008000; stroke-linejoin: miter"/>
     <use xlink:href="#m239a8bb0cf" x="868.825909" y="212.092489" style="fill: #008000; stroke: #008000; stroke-linejoin: miter"/>
    </g>
   </g>
   <g id="line2d_15">
    <path d="M 158.644091 358.11375 
L 216.12617 356.032664 
L 275.46251 353.884446 
L 394.13519 349.588011 
L 631.480549 340.998337 
L 868.825909 332.403335 
" clip-path="url(#p0233ef2883)" style="fill: none; stroke-dasharray: 1.5,2.475; stroke-dashoffset: 0; stroke: #bf00bf; stroke-width: 1.5"/>
    <defs>
     <path id="mc91f3bf1b5" d="M -0 4 
L 4 -4 
L -4 -4 
z
" style="stroke: #bf00bf; stroke-linejoin: miter"/>
    </defs>
    <g clip-path="url(#p0233ef2883)">
     <use xlink:href="#mc91f3bf1b5" x="158.644091" y="358.11375" style="fill: #bf00bf; stroke: #bf00bf; stroke-linejoin: miter"/>
     <use xlink:href="#mc91f3bf1b5" x="216.12617" y="356.032664" style="fill: #bf00bf; stroke: #bf00bf; stroke-linejoin: miter"/>
     <use xlink:href="#mc91f3bf1b5" x="275.46251" y="353.884446" style="fill: #bf00bf; stroke: #bf00bf; stroke-linejoin: miter"/>
     <use xlink:href="#mc91f3bf1b5" x="394.13519" y="349.588011" style="fill: #bf00bf; stroke: #bf00bf; stroke-linejoin: miter"/>
     <use xlink:href="#mc91f3bf1b5" x="631.480549" y="340.998337" style="fill: #bf00bf; stroke: #bf00bf; stroke-linejoin: miter"/>
     <use xlink:href="#mc91f3bf1b5" x="868.825909" y="332.403335" style="fill: #bf00bf; stroke: #bf00bf; stroke-linejoin: miter"/>
    </g>
   </g>
   <g id="line2d_16">
    <path d="M 158.644091 358.11375 
L 216.12617 356.032664 
L 275.46251 353.884446 
L 394.13519 349.588011 
L 631.480549 340.998337 
L 868.825909 332.403335 
" clip-path="url(#p0233ef2883)" style="fill: none; stroke-dasharray: 5.55,2.4; stroke-dashoffset: 0; stroke: #00bfbf; stroke-width: 1.5"/>
    <defs>
     <path id="m34834c6af7" d="M 0 -4 
L -3.804226 -1.236068 
L -2.351141 3.236068 
L 2.351141 3.236068 
L 3.804226 -1.236068 
z
" style="stroke: #00bfbf; stroke-linejoin: miter"/>
    </defs>
    <g clip-path="url(#p0233ef2883)">
     <use xlink:href="#m34834c6af7" x="158.644091" y="358.11375" style="fill: #00bfbf; stroke: #00bfbf; stroke-linejoin: miter"/>
     <use xlink:href="#m34834c6af7" x="216.12617" y="356.032664" style="fill: #00bfbf; stroke: #00bfbf; stroke-linejoin: miter"/>
     <use xlink:href="#m34834c6af7" x="275.46251" y="353.884446" style="fill: #00bfbf; stroke: #00bfbf; stroke-linejoin: miter"/>
     <use xlink:href="#m34834c6af7" x="394.13519" y="349.588011" style="fill: #00bfbf; stroke: #00bfbf; stroke-linejoin: miter"/>
     <use xlink:href="#m34834c6af7" x="631.480549" y="340.998337" style="fill: #00bfbf; stroke: #00bfbf; stroke-linejoin: miter"/>
     <use xlink:href="#m34834c6af7" x="868.825909" y="332.403335" style="fill: #00bfbf; stroke: #00bfbf; stroke-linejoin: miter"/>
    </g>
   </g>
   <g id="line2d_17">
    <path d="M 158.644091 358.11375 
L 216.12617 356.032664 
L 275.46251 353.884446 
L 394.13519 349.588011 
L 631.480549 340.999403 
L 868.825909 332.391614 
" clip-path="url(#p0233ef2883)" style="fill: none; stroke-dasharray: 9.6,2.4,1.5,2.4; stroke-dashoffset: 0; stroke: #0000ff; stroke-width: 1.5"/>
    <defs>
     <path id="m37bec69b6e" d="M 0 -4 
L -0.898056 -1.236068 
L -3.804226 -1.236068 
L -1.453085 0.472136 
L -2.351141 3.236068 
L -0 1.527864 
L 2.351141 3.236068 
L 1.453085 0.472136 
L 3.804226 -1.236068 
L 0.898056 -1.236068 
z
" style="stroke: #0000ff; stroke-linejoin: bevel"/>
    </defs>
    <g clip-path="url(#p0233ef2883)">
     <use xlink:href="#m37bec69b6e" x="158.644091" y="358.11375" style="fill: #0000ff; stroke: #0000ff; stroke-linejoin: bevel"/>
     <use xlink:href="#m37bec69b6e" x="216.12617" y="356.032664" style="fill: #0000ff; stroke: #0000ff; stroke-linejoin: bevel"/>
     <use xlink:href="#m37bec69b6e" x="275.46251" y="353.884446" style="fill: #0000ff; stroke: #0000ff; stroke-linejoin: bevel"/>
     <use xlink:href="#m37bec69b6e" x="394.13519" y="349.588011" style="fill: #0000ff; stroke: #0000ff; stroke-linejoin: bevel"/>
     <use xlink:href="#m37bec69b6e" x="631.480549" y="340.999403" style="fill: #0000ff; stroke: #0000ff; stroke-linejoin: bevel"/>
     <use xlink:href="#m37bec69b6e" x="868.825909" y="332.391614" style="fill: #0000ff; stroke: #0000ff; stroke-linejoin: bevel"/>
    </g>
   </g>
   <g id="line2d_18">
    <path d="M 158.644091 358.11375 
L 216.12617 356.032664 
L 275.46251 353.884446 
L 394.13519 349.588011 
L 631.480549 340.996206 
L 868.825909 332.384155 
" clip-path="url(#p0233ef2883)" style="fill: none; stroke-dasharray: 1.5,2.475; stroke-dashoffset: 0; stroke: #ff0000; stroke-width: 1.5"/>
    <defs>
     <path id="m9659d99f8f" d="M -4 4 
L 4 4 
L 4 -4 
L -4 -4 
z
" style="stroke: #ff0000; stroke-linejoin: miter"/>
    </defs>
    <g clip-path="url(#p0233ef2883)">
     <use xlink:href="#m9659d99f8f" x="158.644091" y="358.11375" style="fill: #ff0000; stroke: #ff0000; stroke-linejoin: miter"/>
     <use xlink:href="#m9659d99f8f" x="216.12617" y="356.032664" style="fill: #ff0000; stroke: #ff0000; stroke-linejoin: miter"/>
     <use xlink:href="#m9659d99f8f" x="275.46251" y="353.884446" style="fill: #ff0000; stroke: #ff0000; stroke-linejoin: miter"/>
     <use xlink:href="#m9659d99f8f" x="394.13519" y="349.588011" style="fill: #ff0000; stroke: #ff0000; stroke-linejoin: miter"/>
     <use xlink:href="#m9659d99f8f" x="631.480549" y="340.996206" style="fill: #ff0000; stroke: #ff0000; stroke-linejoin: miter"/>
     <use xlink:href="#m9659d99f8f" x="868.825909" y="332.384155" style="fill: #ff0000; stroke: #ff0000; stroke-linejoin: miter"/>
    </g>
   </g>
   <g id="line2d_19">
    <path d="M 158.644091 358.11375 
L 216.12617 355.764137 
L 275.46251 352.901978 
L 394.13519 338.938563 
L 631.480549 276.672218 
L 868.825909 292.009171 
" clip-path="url(#p0233ef2883)" style="fill: none; stroke-dasharray: 5.55,2.4; stroke-dashoffset: 0; stroke: #800080; stroke-width: 1.5"/>
    <defs>
     <path id="m4730c165b5" d="M 0 -4 
L -4 4 
L 4 4 
z
" style="stroke: #800080; stroke-linejoin: miter"/>
    </defs>
    <g clip-path="url(#p0233ef2883)">
     <use xlink:href="#m4730c165b5" x="158.644091" y="358.11375" style="fill: #800080; stroke: #800080; stroke-linejoin: miter"/>
     <use xlink:href="#m4730c165b5" x="216.12617" y="355.764137" style="fill: #800080; stroke: #800080; stroke-linejoin: miter"/>
     <use xlink:href="#m4730c165b5" x="275.46251" y="352.901978" style="fill: #800080; stroke: #800080; stroke-linejoin: miter"/>
     <use xlink:href="#m4730c165b5" x="394.13519" y="338.938563" style="fill: #800080; stroke: #800080; stroke-linejoin: miter"/>
     <use xlink:href="#m4730c165b5" x="631.480549" y="276.672218" style="fill: #800080; stroke: #800080; stroke-linejoin: miter"/>
     <use xlink:href="#m4730c165b5" x="868.825909" y="292.009171" style="fill: #800080; stroke: #800080; stroke-linejoin: miter"/>
    </g>
   </g>
   <g id="line2d_20">
    <path d="M 158.644091 358.11375 
L 216.12617 355.776924 
L 275.46251 352.86042 
L 394.13519 336.520752 
L 631.480549 271.233476 
L 868.825909 293.636318 
" clip-path="url(#p0233ef2883)" style="fill: none; stroke-dasharray: 9.6,2.4,1.5,2.4; stroke-dashoffset: 0; stroke: #ffc0cb; stroke-width: 1.5"/>
    <defs>
     <path id="mcc31420210" d="M -0 4 
L 4 -4 
L -4 -4 
z
" style="stroke: #ffc0cb; stroke-linejoin: miter"/>
    </defs>
    <g clip-path="url(#p0233ef2883)">
     <use xlink:href="#mcc31420210" x="158.644091" y="358.11375" style="fill: #ffc0cb; stroke: #ffc0cb; stroke-linejoin: miter"/>
     <use xlink:href="#mcc31420210" x="216.12617" y="355.776924" style="fill: #ffc0cb; stroke: #ffc0cb; stroke-linejoin: miter"/>
     <use xlink:href="#mcc31420210" x="275.46251" y="352.86042" style="fill: #ffc0cb; stroke: #ffc0cb; stroke-linejoin: miter"/>
     <use xlink:href="#mcc31420210" x="394.13519" y="336.520752" style="fill: #ffc0cb; stroke: #ffc0cb; stroke-linejoin: miter"/>
     <use xlink:href="#mcc31420210" x="631.480549" y="271.233476" style="fill: #ffc0cb; stroke: #ffc0cb; stroke-linejoin: miter"/>
     <use xlink:href="#mcc31420210" x="868.825909" y="293.636318" style="fill: #ffc0cb; stroke: #ffc0cb; stroke-linejoin: miter"/>
    </g>
   </g>
   <g id="line2d_21">
    <path d="M 158.644091 358.11375 
L 216.12617 355.407166 
L 275.46251 348.786692 
L 394.13519 304.907001 
L 631.480549 55.71375 
L 868.825909 193.017467 
" clip-path="url(#p0233ef2883)" style="fill: none; stroke-dasharray: 1.5,2.475; stroke-dashoffset: 0; stroke: #a52a2a; stroke-width: 1.5"/>
    <defs>
     <path id="m4a8b55c7d8" d="M 0 -4 
L -3.804226 -1.236068 
L -2.351141 3.236068 
L 2.351141 3.236068 
L 3.804226 -1.236068 
z
" style="stroke: #a52a2a; stroke-linejoin: miter"/>
    </defs>
    <g clip-path="url(#p0233ef2883)">
     <use xlink:href="#m4a8b55c7d8" x="158.644091" y="358.11375" style="fill: #a52a2a; stroke: #a52a2a; stroke-linejoin: miter"/>
     <use xlink:href="#m4a8b55c7d8" x="216.12617" y="355.407166" style="fill: #a52a2a; stroke: #a52a2a; stroke-linejoin: miter"/>
     <use xlink:href="#m4a8b55c7d8" x="275.46251" y="348.786692" style="fill: #a52a2a; stroke: #a52a2a; stroke-linejoin: miter"/>
     <use xlink:href="#m4a8b55c7d8" x="394.13519" y="304.907001" style="fill: #a52a2a; stroke: #a52a2a; stroke-linejoin: miter"/>
     <use xlink:href="#m4a8b55c7d8" x="631.480549" y="55.71375" style="fill: #a52a2a; stroke: #a52a2a; stroke-linejoin: miter"/>
     <use xlink:href="#m4a8b55c7d8" x="868.825909" y="193.017467" style="fill: #a52a2a; stroke: #a52a2a; stroke-linejoin: miter"/>
    </g>
   </g>
   <g id="line2d_22">
    <path d="M 158.644091 358.11375 
L 216.12617 355.374133 
L 275.46251 349.110629 
L 394.13519 306.713166 
L 631.480549 58.209348 
L 868.825909 198.684243 
" clip-path="url(#p0233ef2883)" style="fill: none; stroke-dasharray: 5.55,2.4; stroke-dashoffset: 0; stroke: #000000; stroke-width: 1.5"/>
    <defs>
     <path id="m85e6b48304" d="M 0 -4 
L -0.898056 -1.236068 
L -3.804226 -1.236068 
L -1.453085 0.472136 
L -2.351141 3.236068 
L -0 1.527864 
L 2.351141 3.236068 
L 1.453085 0.472136 
L 3.804226 -1.236068 
L 0.898056 -1.236068 
z
" style="stroke: #000000; stroke-linejoin: bevel"/>
    </defs>
    <g clip-path="url(#p0233ef2883)">
     <use xlink:href="#m85e6b48304" x="158.644091" y="358.11375" style="stroke: #000000; stroke-linejoin: bevel"/>
     <use xlink:href="#m85e6b48304" x="216.12617" y="355.374133" style="stroke: #000000; stroke-linejoin: bevel"/>
     <use xlink:href="#m85e6b48304" x="275.46251" y="349.110629" style="stroke: #000000; stroke-linejoin: bevel"/>
     <use xlink:href="#m85e6b48304" x="394.13519" y="306.713166" style="stroke: #000000; stroke-linejoin: bevel"/>
     <use xlink:href="#m85e6b48304" x="631.480549" y="58.209348" style="stroke: #000000; stroke-linejoin: bevel"/>
     <use xlink:href="#m85e6b48304" x="868.825909" y="198.684243" style="stroke: #000000; stroke-linejoin: bevel"/>
    </g>
   </g>
   <g id="patch_3">
    <path d="M 123.135 373.23375 
L 123.135 40.59375 
" style="fill: none; stroke: #000000; stroke-width: 0.8; stroke-linejoin: miter; stroke-linecap: square"/>
   </g>
   <g id="patch_4">
    <path d="M 904.335 373.23375 
L 904.335 40.59375 
" style="fill: none; stroke: #000000; stroke-width: 0.8; stroke-linejoin: miter; stroke-linecap: square"/>
   </g>
   <g id="patch_5">
    <path d="M 123.135 373.23375 
L 904.335 373.23375 
" style="fill: none; stroke: #000000; stroke-width: 0.8; stroke-linejoin: miter; stroke-linecap: square"/>
   </g>
   <g id="patch_6">
    <path d="M 123.135 40.59375 
L 904.335 40.59375 
" style="fill: none; stroke: #000000; stroke-width: 0.8; stroke-linejoin: miter; stroke-linecap: square"/>
   </g>
   <g id="legend_1">
    <g id="line2d_23">
     <path d="M 126.885 54.589844 
L 146.885 54.589844 
L 166.885 54.589844 
" style="fill: none; stroke-dasharray: 5.55,2.4; stroke-dashoffset: 0; stroke: #ffd700; stroke-width: 1.5"/>
     <g>
      <use xlink:href="#m0e2bfc6f89" x="146.885" y="54.589844" style="fill: #ffd700; stroke: #ffd700; stroke-linejoin: miter"/>
     </g>
    </g>
    <g id="text_16">
     <!-- HMList-EBR -->
     <g transform="translate(169.385 63.339844) scale(0.25 -0.25)">
      <defs>
       <path id="DejaVuSans-Bold-48" d="M 588 4666 
L 1791 4666 
L 1791 2888 
L 3566 2888 
L 3566 4666 
L 4769 4666 
L 4769 0 
L 3566 0 
L 3566 1978 
L 1791 1978 
L 1791 0 
L 588 0 
L 588 4666 
z
" transform="scale(0.015625)"/>
       <path id="DejaVuSans-Bold-4d" d="M 588 4666 
L 2119 4666 
L 3181 2169 
L 4250 4666 
L 5778 4666 
L 5778 0 
L 4641 0 
L 4641 3413 
L 3566 897 
L 2803 897 
L 1728 3413 
L 1728 0 
L 588 0 
L 588 4666 
z
" transform="scale(0.015625)"/>
       <path id="DejaVuSans-Bold-4c" d="M 588 4666 
L 1791 4666 
L 1791 909 
L 3903 909 
L 3903 0 
L 588 0 
L 588 4666 
z
" transform="scale(0.015625)"/>
       <path id="DejaVuSans-Bold-45" d="M 588 4666 
L 3834 4666 
L 3834 3756 
L 1791 3756 
L 1791 2888 
L 3713 2888 
L 3713 1978 
L 1791 1978 
L 1791 909 
L 3903 909 
L 3903 0 
L 588 0 
L 588 4666 
z
" transform="scale(0.015625)"/>
       <path id="DejaVuSans-Bold-42" d="M 2456 2859 
Q 2741 2859 2887 2984 
Q 3034 3109 3034 3353 
Q 3034 3594 2887 3720 
Q 2741 3847 2456 3847 
L 1791 3847 
L 1791 2859 
L 2456 2859 
z
M 2497 819 
Q 2859 819 3042 972 
Q 3225 1125 3225 1434 
Q 3225 1738 3044 1889 
Q 2863 2041 2497 2041 
L 1791 2041 
L 1791 819 
L 2497 819 
z
M 3616 2497 
Q 4003 2384 4215 2081 
Q 4428 1778 4428 1338 
Q 4428 663 3972 331 
Q 3516 0 2584 0 
L 588 0 
L 588 4666 
L 2394 4666 
Q 3366 4666 3802 4372 
Q 4238 4078 4238 3431 
Q 4238 3091 4078 2852 
Q 3919 2613 3616 2497 
z
" transform="scale(0.015625)"/>
      </defs>
      <use xlink:href="#DejaVuSans-Bold-48"/>
      <use xlink:href="#DejaVuSans-Bold-4d" transform="translate(83.691406 0)"/>
      <use xlink:href="#DejaVuSans-Bold-4c" transform="translate(183.203125 0)"/>
      <use xlink:href="#DejaVuSans-Bold-69" transform="translate(246.923828 0)"/>
      <use xlink:href="#DejaVuSans-Bold-73" transform="translate(281.201172 0)"/>
      <use xlink:href="#DejaVuSans-Bold-74" transform="translate(340.722656 0)"/>
      <use xlink:href="#DejaVuSans-Bold-2d" transform="translate(388.525391 0)"/>
      <use xlink:href="#DejaVuSans-Bold-45" transform="translate(430.029297 0)"/>
      <use xlink:href="#DejaVuSans-Bold-42" transform="translate(498.339844 0)"/>
      <use xlink:href="#DejaVuSans-Bold-52" transform="translate(574.560547 0)"/>
     </g>
    </g>
    <g id="line2d_24">
     <path d="M 126.885 82.535156 
L 146.885 82.535156 
L 166.885 82.535156 
" style="fill: none; stroke-dasharray: 9.6,2.4,1.5,2.4; stroke-dashoffset: 0; stroke: #008000; stroke-width: 1.5"/>
     <g>
      <use xlink:href="#m239a8bb0cf" x="146.885" y="82.535156" style="fill: #008000; stroke: #008000; stroke-linejoin: miter"/>
     </g>
    </g>
    <g id="text_17">
     <!-- HList-EBR -->
     <g transform="translate(169.385 91.285156) scale(0.25 -0.25)">
      <use xlink:href="#DejaVuSans-Bold-48"/>
      <use xlink:href="#DejaVuSans-Bold-4c" transform="translate(83.691406 0)"/>
      <use xlink:href="#DejaVuSans-Bold-69" transform="translate(147.412109 0)"/>
      <use xlink:href="#DejaVuSans-Bold-73" transform="translate(181.689453 0)"/>
      <use xlink:href="#DejaVuSans-Bold-74" transform="translate(241.210938 0)"/>
      <use xlink:href="#DejaVuSans-Bold-2d" transform="translate(289.013672 0)"/>
      <use xlink:href="#DejaVuSans-Bold-45" transform="translate(330.517578 0)"/>
      <use xlink:href="#DejaVuSans-Bold-42" transform="translate(398.828125 0)"/>
      <use xlink:href="#DejaVuSans-Bold-52" transform="translate(475.048828 0)"/>
     </g>
    </g>
    <g id="line2d_25">
     <path d="M 126.885 110.480469 
L 146.885 110.480469 
L 166.885 110.480469 
" style="fill: none; stroke-dasharray: 1.5,2.475; stroke-dashoffset: 0; stroke: #bf00bf; stroke-width: 1.5"/>
     <g>
      <use xlink:href="#mc91f3bf1b5" x="146.885" y="110.480469" style="fill: #bf00bf; stroke: #bf00bf; stroke-linejoin: miter"/>
     </g>
    </g>
    <g id="text_18">
     <!-- HMList-HP -->
     <g transform="translate(169.385 119.230469) scale(0.25 -0.25)">
      <defs>
       <path id="DejaVuSans-Bold-50" d="M 588 4666 
L 2584 4666 
Q 3475 4666 3951 4270 
Q 4428 3875 4428 3144 
Q 4428 2409 3951 2014 
Q 3475 1619 2584 1619 
L 1791 1619 
L 1791 0 
L 588 0 
L 588 4666 
z
M 1791 3794 
L 1791 2491 
L 2456 2491 
Q 2806 2491 2997 2661 
Q 3188 2831 3188 3144 
Q 3188 3456 2997 3625 
Q 2806 3794 2456 3794 
L 1791 3794 
z
" transform="scale(0.015625)"/>
      </defs>
      <use xlink:href="#DejaVuSans-Bold-48"/>
      <use xlink:href="#DejaVuSans-Bold-4d" transform="translate(83.691406 0)"/>
      <use xlink:href="#DejaVuSans-Bold-4c" transform="translate(183.203125 0)"/>
      <use xlink:href="#DejaVuSans-Bold-69" transform="translate(246.923828 0)"/>
      <use xlink:href="#DejaVuSans-Bold-73" transform="translate(281.201172 0)"/>
      <use xlink:href="#DejaVuSans-Bold-74" transform="translate(340.722656 0)"/>
      <use xlink:href="#DejaVuSans-Bold-2d" transform="translate(388.525391 0)"/>
      <use xlink:href="#DejaVuSans-Bold-48" transform="translate(430.029297 0)"/>
      <use xlink:href="#DejaVuSans-Bold-50" transform="translate(513.720703 0)"/>
     </g>
    </g>
    <g id="line2d_26">
     <path d="M 126.885 138.425781 
L 146.885 138.425781 
L 166.885 138.425781 
" style="fill: none; stroke-dasharray: 5.55,2.4; stroke-dashoffset: 0; stroke: #00bfbf; stroke-width: 1.5"/>
     <g>
      <use xlink:href="#m34834c6af7" x="146.885" y="138.425781" style="fill: #00bfbf; stroke: #00bfbf; stroke-linejoin: miter"/>
     </g>
    </g>
    <g id="text_19">
     <!-- HList-HP -->
     <g transform="translate(169.385 147.175781) scale(0.25 -0.25)">
      <use xlink:href="#DejaVuSans-Bold-48"/>
      <use xlink:href="#DejaVuSans-Bold-4c" transform="translate(83.691406 0)"/>
      <use xlink:href="#DejaVuSans-Bold-69" transform="translate(147.412109 0)"/>
      <use xlink:href="#DejaVuSans-Bold-73" transform="translate(181.689453 0)"/>
      <use xlink:href="#DejaVuSans-Bold-74" transform="translate(241.210938 0)"/>
      <use xlink:href="#DejaVuSans-Bold-2d" transform="translate(289.013672 0)"/>
      <use xlink:href="#DejaVuSans-Bold-48" transform="translate(330.517578 0)"/>
      <use xlink:href="#DejaVuSans-Bold-50" transform="translate(414.208984 0)"/>
     </g>
    </g>
    <g id="line2d_27">
     <path d="M 126.885 166.371094 
L 146.885 166.371094 
L 166.885 166.371094 
" style="fill: none; stroke-dasharray: 9.6,2.4,1.5,2.4; stroke-dashoffset: 0; stroke: #0000ff; stroke-width: 1.5"/>
     <g>
      <use xlink:href="#m37bec69b6e" x="146.885" y="166.371094" style="fill: #0000ff; stroke: #0000ff; stroke-linejoin: bevel"/>
     </g>
    </g>
    <g id="text_20">
     <!-- HMList-HPopt -->
     <g transform="translate(169.385 175.121094) scale(0.25 -0.25)">
      <defs>
       <path id="DejaVuSans-Bold-70" d="M 1656 506 
L 1656 -1331 
L 538 -1331 
L 538 3500 
L 1656 3500 
L 1656 2988 
Q 1888 3294 2169 3439 
Q 2450 3584 2816 3584 
Q 3463 3584 3878 3070 
Q 4294 2556 4294 1747 
Q 4294 938 3878 423 
Q 3463 -91 2816 -91 
Q 2450 -91 2169 54 
Q 1888 200 1656 506 
z
M 2400 2772 
Q 2041 2772 1848 2508 
Q 1656 2244 1656 1747 
Q 1656 1250 1848 986 
Q 2041 722 2400 722 
Q 2759 722 2948 984 
Q 3138 1247 3138 1747 
Q 3138 2247 2948 2509 
Q 2759 2772 2400 2772 
z
" transform="scale(0.015625)"/>
      </defs>
      <use xlink:href="#DejaVuSans-Bold-48"/>
      <use xlink:href="#DejaVuSans-Bold-4d" transform="translate(83.691406 0)"/>
      <use xlink:href="#DejaVuSans-Bold-4c" transform="translate(183.203125 0)"/>
      <use xlink:href="#DejaVuSans-Bold-69" transform="translate(246.923828 0)"/>
      <use xlink:href="#DejaVuSans-Bold-73" transform="translate(281.201172 0)"/>
      <use xlink:href="#DejaVuSans-Bold-74" transform="translate(340.722656 0)"/>
      <use xlink:href="#DejaVuSans-Bold-2d" transform="translate(388.525391 0)"/>
      <use xlink:href="#DejaVuSans-Bold-48" transform="translate(430.029297 0)"/>
      <use xlink:href="#DejaVuSans-Bold-50" transform="translate(513.720703 0)"/>
      <use xlink:href="#DejaVuSans-Bold-6f" transform="translate(587.011719 0)"/>
      <use xlink:href="#DejaVuSans-Bold-70" transform="translate(655.712891 0)"/>
      <use xlink:href="#DejaVuSans-Bold-74" transform="translate(727.294922 0)"/>
     </g>
    </g>
    <g id="line2d_28">
     <path d="M 126.885 194.316406 
L 146.885 194.316406 
L 166.885 194.316406 
" style="fill: none; stroke-dasharray: 1.5,2.475; stroke-dashoffset: 0; stroke: #ff0000; stroke-width: 1.5"/>
     <g>
      <use xlink:href="#m9659d99f8f" x="146.885" y="194.316406" style="fill: #ff0000; stroke: #ff0000; stroke-linejoin: miter"/>
     </g>
    </g>
    <g id="text_21">
     <!-- HList-HPopt -->
     <g transform="translate(169.385 203.066406) scale(0.25 -0.25)">
      <use xlink:href="#DejaVuSans-Bold-48"/>
      <use xlink:href="#DejaVuSans-Bold-4c" transform="translate(83.691406 0)"/>
      <use xlink:href="#DejaVuSans-Bold-69" transform="translate(147.412109 0)"/>
      <use xlink:href="#DejaVuSans-Bold-73" transform="translate(181.689453 0)"/>
      <use xlink:href="#DejaVuSans-Bold-74" transform="translate(241.210938 0)"/>
      <use xlink:href="#DejaVuSans-Bold-2d" transform="translate(289.013672 0)"/>
      <use xlink:href="#DejaVuSans-Bold-48" transform="translate(330.517578 0)"/>
      <use xlink:href="#DejaVuSans-Bold-50" transform="translate(414.208984 0)"/>
      <use xlink:href="#DejaVuSans-Bold-6f" transform="translate(487.5 0)"/>
      <use xlink:href="#DejaVuSans-Bold-70" transform="translate(556.201172 0)"/>
      <use xlink:href="#DejaVuSans-Bold-74" transform="translate(627.783203 0)"/>
     </g>
    </g>
    <g id="line2d_29">
     <path d="M 126.885 222.261719 
L 146.885 222.261719 
L 166.885 222.261719 
" style="fill: none; stroke-dasharray: 5.55,2.4; stroke-dashoffset: 0; stroke: #800080; stroke-width: 1.5"/>
     <g>
      <use xlink:href="#m4730c165b5" x="146.885" y="222.261719" style="fill: #800080; stroke: #800080; stroke-linejoin: miter"/>
     </g>
    </g>
    <g id="text_22">
     <!-- HMList-IBR -->
     <g transform="translate(169.385 231.011719) scale(0.25 -0.25)">
      <defs>
       <path id="DejaVuSans-Bold-49" d="M 588 4666 
L 1791 4666 
L 1791 0 
L 588 0 
L 588 4666 
z
" transform="scale(0.015625)"/>
      </defs>
      <use xlink:href="#DejaVuSans-Bold-48"/>
      <use xlink:href="#DejaVuSans-Bold-4d" transform="translate(83.691406 0)"/>
      <use xlink:href="#DejaVuSans-Bold-4c" transform="translate(183.203125 0)"/>
      <use xlink:href="#DejaVuSans-Bold-69" transform="translate(246.923828 0)"/>
      <use xlink:href="#DejaVuSans-Bold-73" transform="translate(281.201172 0)"/>
      <use xlink:href="#DejaVuSans-Bold-74" transform="translate(340.722656 0)"/>
      <use xlink:href="#DejaVuSans-Bold-2d" transform="translate(388.525391 0)"/>
      <use xlink:href="#DejaVuSans-Bold-49" transform="translate(430.029297 0)"/>
      <use xlink:href="#DejaVuSans-Bold-42" transform="translate(467.236328 0)"/>
      <use xlink:href="#DejaVuSans-Bold-52" transform="translate(543.457031 0)"/>
     </g>
    </g>
    <g id="line2d_30">
     <path d="M 126.885 250.207031 
L 146.885 250.207031 
L 166.885 250.207031 
" style="fill: none; stroke-dasharray: 9.6,2.4,1.5,2.4; stroke-dashoffset: 0; stroke: #ffc0cb; stroke-width: 1.5"/>
     <g>
      <use xlink:href="#mcc31420210" x="146.885" y="250.207031" style="fill: #ffc0cb; stroke: #ffc0cb; stroke-linejoin: miter"/>
     </g>
    </g>
    <g id="text_23">
     <!-- HList-IBR -->
     <g transform="translate(169.385 258.957031) scale(0.25 -0.25)">
      <use xlink:href="#DejaVuSans-Bold-48"/>
      <use xlink:href="#DejaVuSans-Bold-4c" transform="translate(83.691406 0)"/>
      <use xlink:href="#DejaVuSans-Bold-69" transform="translate(147.412109 0)"/>
      <use xlink:href="#DejaVuSans-Bold-73" transform="translate(181.689453 0)"/>
      <use xlink:href="#DejaVuSans-Bold-74" transform="translate(241.210938 0)"/>
      <use xlink:href="#DejaVuSans-Bold-2d" transform="translate(289.013672 0)"/>
      <use xlink:href="#DejaVuSans-Bold-49" transform="translate(330.517578 0)"/>
      <use xlink:href="#DejaVuSans-Bold-42" transform="translate(367.724609 0)"/>
      <use xlink:href="#DejaVuSans-Bold-52" transform="translate(443.945312 0)"/>
     </g>
    </g>
    <g id="line2d_31">
     <path d="M 126.885 278.152344 
L 146.885 278.152344 
L 166.885 278.152344 
" style="fill: none; stroke-dasharray: 1.5,2.475; stroke-dashoffset: 0; stroke: #a52a2a; stroke-width: 1.5"/>
     <g>
      <use xlink:href="#m4a8b55c7d8" x="146.885" y="278.152344" style="fill: #a52a2a; stroke: #a52a2a; stroke-linejoin: miter"/>
     </g>
    </g>
    <g id="text_24">
     <!-- HMList-HE -->
     <g transform="translate(169.385 286.902344) scale(0.25 -0.25)">
      <use xlink:href="#DejaVuSans-Bold-48"/>
      <use xlink:href="#DejaVuSans-Bold-4d" transform="translate(83.691406 0)"/>
      <use xlink:href="#DejaVuSans-Bold-4c" transform="translate(183.203125 0)"/>
      <use xlink:href="#DejaVuSans-Bold-69" transform="translate(246.923828 0)"/>
      <use xlink:href="#DejaVuSans-Bold-73" transform="translate(281.201172 0)"/>
      <use xlink:href="#DejaVuSans-Bold-74" transform="translate(340.722656 0)"/>
      <use xlink:href="#DejaVuSans-Bold-2d" transform="translate(388.525391 0)"/>
      <use xlink:href="#DejaVuSans-Bold-48" transform="translate(430.029297 0)"/>
      <use xlink:href="#DejaVuSans-Bold-45" transform="translate(513.720703 0)"/>
     </g>
    </g>
    <g id="line2d_32">
     <path d="M 126.885 306.097656 
L 146.885 306.097656 
L 166.885 306.097656 
" style="fill: none; stroke-dasharray: 5.55,2.4; stroke-dashoffset: 0; stroke: #000000; stroke-width: 1.5"/>
     <g>
      <use xlink:href="#m85e6b48304" x="146.885" y="306.097656" style="stroke: #000000; stroke-linejoin: bevel"/>
     </g>
    </g>
    <g id="text_25">
     <!-- HList-HE -->
     <g transform="translate(169.385 314.847656) scale(0.25 -0.25)">
      <use xlink:href="#DejaVuSans-Bold-48"/>
      <use xlink:href="#DejaVuSans-Bold-4c" transform="translate(83.691406 0)"/>
      <use xlink:href="#DejaVuSans-Bold-69" transform="translate(147.412109 0)"/>
      <use xlink:href="#DejaVuSans-Bold-73" transform="translate(181.689453 0)"/>
      <use xlink:href="#DejaVuSans-Bold-74" transform="translate(241.210938 0)"/>
      <use xlink:href="#DejaVuSans-Bold-2d" transform="translate(289.013672 0)"/>
      <use xlink:href="#DejaVuSans-Bold-48" transform="translate(330.517578 0)"/>
      <use xlink:href="#DejaVuSans-Bold-45" transform="translate(414.208984 0)"/>
     </g>
    </g>
   </g>
  </g>
 </g>
 <defs>
  <clipPath id="p0233ef2883">
   <rect x="123.135" y="40.59375" width="781.2" height="332.64"/>
  </clipPath>
 </defs>
</svg>
