<?xml version="1.0" encoding="utf-8" standalone="no"?>
<!DOCTYPE svg PUBLIC "-//W3C//DTD SVG 1.1//EN"
  "http://www.w3.org/Graphics/SVG/1.1/DTD/svg11.dtd">
<svg xmlns:xlink="http://www.w3.org/1999/xlink" width="1337.1225pt" height="687.7475pt" viewBox="0 0 1337.1225 687.7475" xmlns="http://www.w3.org/2000/svg" version="1.1">
 <metadata>
  <rdf:RDF xmlns:dc="http://purl.org/dc/elements/1.1/" xmlns:cc="http://creativecommons.org/ns#" xmlns:rdf="http://www.w3.org/1999/02/22-rdf-syntax-ns#">
   <cc:Work>
    <dc:type rdf:resource="http://purl.org/dc/dcmitype/StillImage"/>
    <dc:date>2025-11-24T08:45:24.084331</dc:date>
    <dc:format>image/svg+xml</dc:format>
    <dc:creator>
     <cc:Agent>
      <dc:title>Matplotlib v3.10.7, https://matplotlib.org/</dc:title>
     </cc:Agent>
    </dc:creator>
   </cc:Work>
  </rdf:RDF>
 </metadata>
 <defs>
  <style type="text/css">*{stroke-linejoin: round; stroke-linecap: butt}</style>
 </defs>
 <g id="figure_1">
  <g id="patch_1">
   <path d="M 0 687.7475 
L 1337.1225 687.7475 
L 1337.1225 0 
L 0 0 
z
" style="fill: #ffffff"/>
  </g>
  <g id="axes_1">
   <g id="patch_2">
    <path d="M 102.3225 594.99375 
L 1329.9225 594.99375 
L 1329.9225 40.59375 
L 102.3225 40.59375 
z
" style="fill: #ffffff"/>
   </g>
   <g id="patch_3">
    <path d="M 106.343024 594.99375 
L 119.744771 594.99375 
L 119.744771 545.950024 
L 106.343024 545.950024 
z
" clip-path="url(#p846f1556b8)" style="fill: url(#h4a65a0283b); stroke: #000000; stroke-linejoin: miter"/>
   </g>
   <g id="patch_4">
    <path d="M 354.275338 594.99375 
L 367.677085 594.99375 
L 367.677085 422.929932 
L 354.275338 422.929932 
z
" clip-path="url(#p846f1556b8)" style="fill: url(#h4a65a0283b); stroke: #000000; stroke-linejoin: miter"/>
   </g>
   <g id="patch_5">
    <path d="M 602.207653 594.99375 
L 615.6094 594.99375 
L 615.6094 364.158718 
L 602.207653 364.158718 
z
" clip-path="url(#p846f1556b8)" style="fill: url(#h4a65a0283b); stroke: #000000; stroke-linejoin: miter"/>
   </g>
   <g id="patch_6">
    <path d="M 850.139967 594.99375 
L 863.541714 594.99375 
L 863.541714 308.437927 
L 850.139967 308.437927 
z
" clip-path="url(#p846f1556b8)" style="fill: url(#h4a65a0283b); stroke: #000000; stroke-linejoin: miter"/>
   </g>
   <g id="patch_7">
    <path d="M 1098.072282 594.99375 
L 1111.474028 594.99375 
L 1111.474028 257.819286 
L 1098.072282 257.819286 
z
" clip-path="url(#p846f1556b8)" style="fill: url(#h4a65a0283b); stroke: #000000; stroke-linejoin: miter"/>
   </g>
   <g id="patch_8">
    <path d="M 119.744771 594.99375 
L 133.146517 594.99375 
L 133.146517 553.852431 
L 119.744771 553.852431 
z
" clip-path="url(#p846f1556b8)" style="fill: url(#he3984c66f3); stroke: #000000; stroke-linejoin: miter"/>
   </g>
   <g id="patch_9">
    <path d="M 367.677085 594.99375 
L 381.078832 594.99375 
L 381.078832 405.736294 
L 367.677085 405.736294 
z
" clip-path="url(#p846f1556b8)" style="fill: url(#he3984c66f3); stroke: #000000; stroke-linejoin: miter"/>
   </g>
   <g id="patch_10">
    <path d="M 615.6094 594.99375 
L 629.011146 594.99375 
L 629.011146 320.978586 
L 615.6094 320.978586 
z
" clip-path="url(#p846f1556b8)" style="fill: url(#he3984c66f3); stroke: #000000; stroke-linejoin: miter"/>
   </g>
   <g id="patch_11">
    <path d="M 863.541714 594.99375 
L 876.943461 594.99375 
L 876.943461 214.595874 
L 863.541714 214.595874 
z
" clip-path="url(#p846f1556b8)" style="fill: url(#he3984c66f3); stroke: #000000; stroke-linejoin: miter"/>
   </g>
   <g id="patch_12">
    <path d="M 1111.474028 594.99375 
L 1124.875775 594.99375 
L 1124.875775 69.324456 
L 1111.474028 69.324456 
z
" clip-path="url(#p846f1556b8)" style="fill: url(#he3984c66f3); stroke: #000000; stroke-linejoin: miter"/>
   </g>
   <g id="patch_13">
    <path d="M 139.847391 594.99375 
L 153.249138 594.99375 
L 153.249138 556.945087 
L 139.847391 556.945087 
z
" clip-path="url(#p846f1556b8)" style="fill: url(#h28403a0647); stroke: #000000; stroke-linejoin: miter"/>
   </g>
   <g id="patch_14">
    <path d="M 387.779705 594.99375 
L 401.181452 594.99375 
L 401.181452 449.939048 
L 387.779705 449.939048 
z
" clip-path="url(#p846f1556b8)" style="fill: url(#h28403a0647); stroke: #000000; stroke-linejoin: miter"/>
   </g>
   <g id="patch_15">
    <path d="M 635.71202 594.99375 
L 649.113766 594.99375 
L 649.113766 399.156947 
L 635.71202 399.156947 
z
" clip-path="url(#p846f1556b8)" style="fill: url(#h28403a0647); stroke: #000000; stroke-linejoin: miter"/>
   </g>
   <g id="patch_16">
    <path d="M 883.644334 594.99375 
L 897.046081 594.99375 
L 897.046081 314.863126 
L 883.644334 314.863126 
z
" clip-path="url(#p846f1556b8)" style="fill: url(#h28403a0647); stroke: #000000; stroke-linejoin: miter"/>
   </g>
   <g id="patch_17">
    <path d="M 1131.576648 594.99375 
L 1144.978395 594.99375 
L 1144.978395 246.346961 
L 1131.576648 246.346961 
z
" clip-path="url(#p846f1556b8)" style="fill: url(#h28403a0647); stroke: #000000; stroke-linejoin: miter"/>
   </g>
   <g id="patch_18">
    <path d="M 153.249138 594.99375 
L 166.650884 594.99375 
L 166.650884 554.136521 
L 153.249138 554.136521 
z
" clip-path="url(#p846f1556b8)" style="fill: url(#h584bb1c787); stroke: #000000; stroke-linejoin: miter"/>
   </g>
   <g id="patch_19">
    <path d="M 401.181452 594.99375 
L 414.583199 594.99375 
L 414.583199 438.997319 
L 401.181452 438.997319 
z
" clip-path="url(#p846f1556b8)" style="fill: url(#h584bb1c787); stroke: #000000; stroke-linejoin: miter"/>
   </g>
   <g id="patch_20">
    <path d="M 649.113766 594.99375 
L 662.515513 594.99375 
L 662.515513 358.010787 
L 649.113766 358.010787 
z
" clip-path="url(#p846f1556b8)" style="fill: url(#h584bb1c787); stroke: #000000; stroke-linejoin: miter"/>
   </g>
   <g id="patch_21">
    <path d="M 897.046081 594.99375 
L 910.447828 594.99375 
L 910.447828 208.371437 
L 897.046081 208.371437 
z
" clip-path="url(#p846f1556b8)" style="fill: url(#h584bb1c787); stroke: #000000; stroke-linejoin: miter"/>
   </g>
   <g id="patch_22">
    <path d="M 1144.978395 594.99375 
L 1158.380142 594.99375 
L 1158.380142 66.99375 
L 1144.978395 66.99375 
z
" clip-path="url(#p846f1556b8)" style="fill: url(#h584bb1c787); stroke: #000000; stroke-linejoin: miter"/>
   </g>
   <g id="patch_23">
    <path d="M 173.351758 594.99375 
L 186.753504 594.99375 
L 186.753504 567.461321 
L 173.351758 567.461321 
z
" clip-path="url(#p846f1556b8)" style="fill: url(#h5c63b05ab4); stroke: #000000; stroke-linejoin: miter"/>
   </g>
   <g id="patch_24">
    <path d="M 421.284072 594.99375 
L 434.685819 594.99375 
L 434.685819 471.673377 
L 421.284072 471.673377 
z
" clip-path="url(#p846f1556b8)" style="fill: url(#h5c63b05ab4); stroke: #000000; stroke-linejoin: miter"/>
   </g>
   <g id="patch_25">
    <path d="M 669.216386 594.99375 
L 682.618133 594.99375 
L 682.618133 439.824324 
L 669.216386 439.824324 
z
" clip-path="url(#p846f1556b8)" style="fill: url(#h5c63b05ab4); stroke: #000000; stroke-linejoin: miter"/>
   </g>
   <g id="patch_26">
    <path d="M 917.148701 594.99375 
L 930.550448 594.99375 
L 930.550448 406.220087 
L 917.148701 406.220087 
z
" clip-path="url(#p846f1556b8)" style="fill: url(#h5c63b05ab4); stroke: #000000; stroke-linejoin: miter"/>
   </g>
   <g id="patch_27">
    <path d="M 1165.081015 594.99375 
L 1178.482762 594.99375 
L 1178.482762 376.684289 
L 1165.081015 376.684289 
z
" clip-path="url(#p846f1556b8)" style="fill: url(#h5c63b05ab4); stroke: #000000; stroke-linejoin: miter"/>
   </g>
   <g id="patch_28">
    <path d="M 186.753504 594.99375 
L 200.155251 594.99375 
L 200.155251 568.182299 
L 186.753504 568.182299 
z
" clip-path="url(#p846f1556b8)" style="fill: url(#h958db1800d); stroke: #000000; stroke-linejoin: miter"/>
   </g>
   <g id="patch_29">
    <path d="M 434.685819 594.99375 
L 448.087566 594.99375 
L 448.087566 460.427191 
L 434.685819 460.427191 
z
" clip-path="url(#p846f1556b8)" style="fill: url(#h958db1800d); stroke: #000000; stroke-linejoin: miter"/>
   </g>
   <g id="patch_30">
    <path d="M 682.618133 594.99375 
L 696.01988 594.99375 
L 696.01988 418.427228 
L 682.618133 418.427228 
z
" clip-path="url(#p846f1556b8)" style="fill: url(#h958db1800d); stroke: #000000; stroke-linejoin: miter"/>
   </g>
   <g id="patch_31">
    <path d="M 930.550448 594.99375 
L 943.952194 594.99375 
L 943.952194 370.621218 
L 930.550448 370.621218 
z
" clip-path="url(#p846f1556b8)" style="fill: url(#h958db1800d); stroke: #000000; stroke-linejoin: miter"/>
   </g>
   <g id="patch_32">
    <path d="M 1178.482762 594.99375 
L 1191.884509 594.99375 
L 1191.884509 313.523189 
L 1178.482762 313.523189 
z
" clip-path="url(#p846f1556b8)" style="fill: url(#h958db1800d); stroke: #000000; stroke-linejoin: miter"/>
   </g>
   <g id="patch_33">
    <path d="M 206.856124 594.99375 
L 220.257871 594.99375 
L 220.257871 567.735965 
L 206.856124 567.735965 
z
" clip-path="url(#p846f1556b8)" style="fill: url(#hb86121fc80); stroke: #000000; stroke-linejoin: miter"/>
   </g>
   <g id="patch_34">
    <path d="M 454.788439 594.99375 
L 468.190186 594.99375 
L 468.190186 441.806313 
L 454.788439 441.806313 
z
" clip-path="url(#p846f1556b8)" style="fill: url(#hb86121fc80); stroke: #000000; stroke-linejoin: miter"/>
   </g>
   <g id="patch_35">
    <path d="M 702.720753 594.99375 
L 716.1225 594.99375 
L 716.1225 380.346274 
L 702.720753 380.346274 
z
" clip-path="url(#p846f1556b8)" style="fill: url(#hb86121fc80); stroke: #000000; stroke-linejoin: miter"/>
   </g>
   <g id="patch_36">
    <path d="M 950.653068 594.99375 
L 964.054814 594.99375 
L 964.054814 330.212733 
L 950.653068 330.212733 
z
" clip-path="url(#p846f1556b8)" style="fill: url(#hb86121fc80); stroke: #000000; stroke-linejoin: miter"/>
   </g>
   <g id="patch_37">
    <path d="M 1198.585382 594.99375 
L 1211.987129 594.99375 
L 1211.987129 290.691264 
L 1198.585382 290.691264 
z
" clip-path="url(#p846f1556b8)" style="fill: url(#hb86121fc80); stroke: #000000; stroke-linejoin: miter"/>
   </g>
   <g id="patch_38">
    <path d="M 220.257871 594.99375 
L 233.659618 594.99375 
L 233.659618 568.061275 
L 220.257871 568.061275 
z
" clip-path="url(#p846f1556b8)" style="fill: url(#h91d0a0d2df); stroke: #000000; stroke-linejoin: miter"/>
   </g>
   <g id="patch_39">
    <path d="M 468.190186 594.99375 
L 481.591932 594.99375 
L 481.591932 425.04614 
L 468.190186 425.04614 
z
" clip-path="url(#p846f1556b8)" style="fill: url(#h91d0a0d2df); stroke: #000000; stroke-linejoin: miter"/>
   </g>
   <g id="patch_40">
    <path d="M 716.1225 594.99375 
L 729.524247 594.99375 
L 729.524247 340.626656 
L 716.1225 340.626656 
z
" clip-path="url(#p846f1556b8)" style="fill: url(#h91d0a0d2df); stroke: #000000; stroke-linejoin: miter"/>
   </g>
   <g id="patch_41">
    <path d="M 964.054814 594.99375 
L 977.456561 594.99375 
L 977.456561 248.859873 
L 964.054814 248.859873 
z
" clip-path="url(#p846f1556b8)" style="fill: url(#h91d0a0d2df); stroke: #000000; stroke-linejoin: miter"/>
   </g>
   <g id="patch_42">
    <path d="M 1211.987129 594.99375 
L 1225.388876 594.99375 
L 1225.388876 129.209445 
L 1211.987129 129.209445 
z
" clip-path="url(#p846f1556b8)" style="fill: url(#h91d0a0d2df); stroke: #000000; stroke-linejoin: miter"/>
   </g>
   <g id="patch_43">
    <path d="M 240.360491 594.99375 
L 253.762238 594.99375 
L 253.762238 558.566401 
L 240.360491 558.566401 
z
" clip-path="url(#p846f1556b8)" style="fill: url(#he737cfb5b1); stroke: #000000; stroke-linejoin: miter"/>
   </g>
   <g id="patch_44">
    <path d="M 488.292806 594.99375 
L 501.694552 594.99375 
L 501.694552 442.33038 
L 488.292806 442.33038 
z
" clip-path="url(#p846f1556b8)" style="fill: url(#he737cfb5b1); stroke: #000000; stroke-linejoin: miter"/>
   </g>
   <g id="patch_45">
    <path d="M 736.22512 594.99375 
L 749.626867 594.99375 
L 749.626867 399.715242 
L 736.22512 399.715242 
z
" clip-path="url(#p846f1556b8)" style="fill: url(#he737cfb5b1); stroke: #000000; stroke-linejoin: miter"/>
   </g>
   <g id="patch_46">
    <path d="M 984.157434 594.99375 
L 997.559181 594.99375 
L 997.559181 338.383332 
L 984.157434 338.383332 
z
" clip-path="url(#p846f1556b8)" style="fill: url(#he737cfb5b1); stroke: #000000; stroke-linejoin: miter"/>
   </g>
   <g id="patch_47">
    <path d="M 1232.089749 594.99375 
L 1245.491496 594.99375 
L 1245.491496 260.750419 
L 1232.089749 260.750419 
z
" clip-path="url(#p846f1556b8)" style="fill: url(#he737cfb5b1); stroke: #000000; stroke-linejoin: miter"/>
   </g>
   <g id="patch_48">
    <path d="M 253.762238 594.99375 
L 267.163985 594.99375 
L 267.163985 557.867704 
L 253.762238 557.867704 
z
" clip-path="url(#p846f1556b8)" style="fill: url(#he2ee270d26); stroke: #000000; stroke-linejoin: miter"/>
   </g>
   <g id="patch_49">
    <path d="M 501.694552 594.99375 
L 515.096299 594.99375 
L 515.096299 434.579926 
L 501.694552 434.579926 
z
" clip-path="url(#p846f1556b8)" style="fill: url(#he2ee270d26); stroke: #000000; stroke-linejoin: miter"/>
   </g>
   <g id="patch_50">
    <path d="M 749.626867 594.99375 
L 763.028614 594.99375 
L 763.028614 372.702872 
L 749.626867 372.702872 
z
" clip-path="url(#p846f1556b8)" style="fill: url(#he2ee270d26); stroke: #000000; stroke-linejoin: miter"/>
   </g>
   <g id="patch_51">
    <path d="M 997.559181 594.99375 
L 1010.960928 594.99375 
L 1010.960928 255.654472 
L 997.559181 255.654472 
z
" clip-path="url(#p846f1556b8)" style="fill: url(#he2ee270d26); stroke: #000000; stroke-linejoin: miter"/>
   </g>
   <g id="patch_52">
    <path d="M 1245.491496 594.99375 
L 1258.893242 594.99375 
L 1258.893242 67.010639 
L 1245.491496 67.010639 
z
" clip-path="url(#p846f1556b8)" style="fill: url(#he2ee270d26); stroke: #000000; stroke-linejoin: miter"/>
   </g>
   <g id="patch_53">
    <path d="M 273.864858 594.99375 
L 287.266605 594.99375 
L 287.266605 567.132375 
L 273.864858 567.132375 
z
" clip-path="url(#p846f1556b8)" style="fill: url(#hd6138107a8); stroke: #000000; stroke-linejoin: miter"/>
   </g>
   <g id="patch_54">
    <path d="M 521.797172 594.99375 
L 535.198919 594.99375 
L 535.198919 464.471569 
L 521.797172 464.471569 
z
" clip-path="url(#p846f1556b8)" style="fill: url(#hd6138107a8); stroke: #000000; stroke-linejoin: miter"/>
   </g>
   <g id="patch_55">
    <path d="M 769.729487 594.99375 
L 783.131234 594.99375 
L 783.131234 414.491557 
L 769.729487 414.491557 
z
" clip-path="url(#p846f1556b8)" style="fill: url(#hd6138107a8); stroke: #000000; stroke-linejoin: miter"/>
   </g>
   <g id="patch_56">
    <path d="M 1017.661801 594.99375 
L 1031.063548 594.99375 
L 1031.063548 331.383389 
L 1017.661801 331.383389 
z
" clip-path="url(#p846f1556b8)" style="fill: url(#hd6138107a8); stroke: #000000; stroke-linejoin: miter"/>
   </g>
   <g id="patch_57">
    <path d="M 1265.594116 594.99375 
L 1278.995862 594.99375 
L 1278.995862 267.365457 
L 1265.594116 267.365457 
z
" clip-path="url(#p846f1556b8)" style="fill: url(#hd6138107a8); stroke: #000000; stroke-linejoin: miter"/>
   </g>
   <g id="patch_58">
    <path d="M 287.266605 594.99375 
L 300.668352 594.99375 
L 300.668352 563.759919 
L 287.266605 563.759919 
z
" clip-path="url(#p846f1556b8)" style="fill: url(#h2e315ec2ef); stroke: #000000; stroke-linejoin: miter"/>
   </g>
   <g id="patch_59">
    <path d="M 535.198919 594.99375 
L 548.600666 594.99375 
L 548.600666 455.270738 
L 535.198919 455.270738 
z
" clip-path="url(#p846f1556b8)" style="fill: url(#h2e315ec2ef); stroke: #000000; stroke-linejoin: miter"/>
   </g>
   <g id="patch_60">
    <path d="M 783.131234 594.99375 
L 796.53298 594.99375 
L 796.53298 376.982273 
L 783.131234 376.982273 
z
" clip-path="url(#p846f1556b8)" style="fill: url(#h2e315ec2ef); stroke: #000000; stroke-linejoin: miter"/>
   </g>
   <g id="patch_61">
    <path d="M 1031.063548 594.99375 
L 1044.465295 594.99375 
L 1044.465295 222.533938 
L 1031.063548 222.533938 
z
" clip-path="url(#p846f1556b8)" style="fill: url(#h2e315ec2ef); stroke: #000000; stroke-linejoin: miter"/>
   </g>
   <g id="patch_62">
    <path d="M 1278.995862 594.99375 
L 1292.397609 594.99375 
L 1292.397609 93.018897 
L 1278.995862 93.018897 
z
" clip-path="url(#p846f1556b8)" style="fill: url(#h2e315ec2ef); stroke: #000000; stroke-linejoin: miter"/>
   </g>
   <g id="patch_63">
    <path d="M 307.369225 594.99375 
L 320.770972 594.99375 
L 320.770972 559.446864 
L 307.369225 559.446864 
z
" clip-path="url(#p846f1556b8)" style="fill: url(#h5dedc3aa81); stroke: #000000; stroke-linejoin: miter"/>
   </g>
   <g id="patch_64">
    <path d="M 555.301539 594.99375 
L 568.703286 594.99375 
L 568.703286 443.06059 
L 555.301539 443.06059 
z
" clip-path="url(#p846f1556b8)" style="fill: url(#h5dedc3aa81); stroke: #000000; stroke-linejoin: miter"/>
   </g>
   <g id="patch_65">
    <path d="M 803.233854 594.99375 
L 816.6356 594.99375 
L 816.6356 399.495025 
L 803.233854 399.495025 
z
" clip-path="url(#p846f1556b8)" style="fill: url(#h5dedc3aa81); stroke: #000000; stroke-linejoin: miter"/>
   </g>
   <g id="patch_66">
    <path d="M 1051.166168 594.99375 
L 1064.567915 594.99375 
L 1064.567915 340.844509 
L 1051.166168 340.844509 
z
" clip-path="url(#p846f1556b8)" style="fill: url(#h5dedc3aa81); stroke: #000000; stroke-linejoin: miter"/>
   </g>
   <g id="patch_67">
    <path d="M 1299.098483 594.99375 
L 1312.500229 594.99375 
L 1312.500229 287.125083 
L 1299.098483 287.125083 
z
" clip-path="url(#p846f1556b8)" style="fill: url(#h5dedc3aa81); stroke: #000000; stroke-linejoin: miter"/>
   </g>
   <g id="patch_68">
    <path d="M 320.770972 594.99375 
L 334.172718 594.99375 
L 334.172718 558.117668 
L 320.770972 558.117668 
z
" clip-path="url(#p846f1556b8)" style="fill: url(#h8a402738a5); stroke: #000000; stroke-linejoin: miter"/>
   </g>
   <g id="patch_69">
    <path d="M 568.703286 594.99375 
L 582.105033 594.99375 
L 582.105033 441.419967 
L 568.703286 441.419967 
z
" clip-path="url(#p846f1556b8)" style="fill: url(#h8a402738a5); stroke: #000000; stroke-linejoin: miter"/>
   </g>
   <g id="patch_70">
    <path d="M 816.6356 594.99375 
L 830.037347 594.99375 
L 830.037347 372.096073 
L 816.6356 372.096073 
z
" clip-path="url(#p846f1556b8)" style="fill: url(#h8a402738a5); stroke: #000000; stroke-linejoin: miter"/>
   </g>
   <g id="patch_71">
    <path d="M 1064.567915 594.99375 
L 1077.969662 594.99375 
L 1077.969662 267.108795 
L 1064.567915 267.108795 
z
" clip-path="url(#p846f1556b8)" style="fill: url(#h8a402738a5); stroke: #000000; stroke-linejoin: miter"/>
   </g>
   <g id="patch_72">
    <path d="M 1312.500229 594.99375 
L 1325.901976 594.99375 
L 1325.901976 115.445145 
L 1312.500229 115.445145 
z
" clip-path="url(#p846f1556b8)" style="fill: url(#h8a402738a5); stroke: #000000; stroke-linejoin: miter"/>
   </g>
   <g id="matplotlib.axis_1">
    <g id="xtick_1">
     <g id="line2d_1">
      <defs>
       <path id="m5f3a2a8bc7" d="M 0 0 
L 0 3.5 
" style="stroke: #000000; stroke-width: 0.8"/>
      </defs>
      <g>
       <use xlink:href="#m5f3a2a8bc7" x="230.309181" y="594.99375" style="stroke: #000000; stroke-width: 0.8"/>
      </g>
     </g>
     <g id="text_1">
      <!-- 1 -->
      <g transform="translate(216.393556 632.3875) scale(0.4 -0.4)">
       <defs>
        <path id="DejaVuSans-Bold-31" d="M 750 831 
L 1813 831 
L 1813 3847 
L 722 3622 
L 722 4441 
L 1806 4666 
L 2950 4666 
L 2950 831 
L 4013 831 
L 4013 0 
L 750 0 
L 750 831 
z
" transform="scale(0.015625)"/>
       </defs>
       <use xlink:href="#DejaVuSans-Bold-31"/>
      </g>
     </g>
    </g>
    <g id="xtick_2">
     <g id="line2d_2">
      <g>
       <use xlink:href="#m5f3a2a8bc7" x="478.241496" y="594.99375" style="stroke: #000000; stroke-width: 0.8"/>
      </g>
     </g>
     <g id="text_2">
      <!-- 32 -->
      <g transform="translate(450.410246 632.3875) scale(0.4 -0.4)">
       <defs>
        <path id="DejaVuSans-Bold-33" d="M 2981 2516 
Q 3453 2394 3698 2092 
Q 3944 1791 3944 1325 
Q 3944 631 3412 270 
Q 2881 -91 1863 -91 
Q 1503 -91 1142 -33 
Q 781 25 428 141 
L 428 1069 
Q 766 900 1098 814 
Q 1431 728 1753 728 
Q 2231 728 2486 893 
Q 2741 1059 2741 1369 
Q 2741 1688 2480 1852 
Q 2219 2016 1709 2016 
L 1228 2016 
L 1228 2791 
L 1734 2791 
Q 2188 2791 2409 2933 
Q 2631 3075 2631 3366 
Q 2631 3634 2415 3781 
Q 2200 3928 1806 3928 
Q 1516 3928 1219 3862 
Q 922 3797 628 3669 
L 628 4550 
Q 984 4650 1334 4700 
Q 1684 4750 2022 4750 
Q 2931 4750 3382 4451 
Q 3834 4153 3834 3553 
Q 3834 3144 3618 2883 
Q 3403 2622 2981 2516 
z
" transform="scale(0.015625)"/>
        <path id="DejaVuSans-Bold-32" d="M 1844 884 
L 3897 884 
L 3897 0 
L 506 0 
L 506 884 
L 2209 2388 
Q 2438 2594 2547 2791 
Q 2656 2988 2656 3200 
Q 2656 3528 2436 3728 
Q 2216 3928 1850 3928 
Q 1569 3928 1234 3808 
Q 900 3688 519 3450 
L 519 4475 
Q 925 4609 1322 4679 
Q 1719 4750 2100 4750 
Q 2938 4750 3402 4381 
Q 3866 4013 3866 3353 
Q 3866 2972 3669 2642 
Q 3472 2313 2841 1759 
L 1844 884 
z
" transform="scale(0.015625)"/>
       </defs>
       <use xlink:href="#DejaVuSans-Bold-33"/>
       <use xlink:href="#DejaVuSans-Bold-32" transform="translate(69.580078 0)"/>
      </g>
     </g>
    </g>
    <g id="xtick_3">
     <g id="line2d_3">
      <g>
       <use xlink:href="#m5f3a2a8bc7" x="726.17381" y="594.99375" style="stroke: #000000; stroke-width: 0.8"/>
      </g>
     </g>
     <g id="text_3">
      <!-- 64 -->
      <g transform="translate(698.34256 632.3875) scale(0.4 -0.4)">
       <defs>
        <path id="DejaVuSans-Bold-36" d="M 2316 2303 
Q 2000 2303 1842 2098 
Q 1684 1894 1684 1484 
Q 1684 1075 1842 870 
Q 2000 666 2316 666 
Q 2634 666 2792 870 
Q 2950 1075 2950 1484 
Q 2950 1894 2792 2098 
Q 2634 2303 2316 2303 
z
M 3803 4544 
L 3803 3681 
Q 3506 3822 3243 3889 
Q 2981 3956 2731 3956 
Q 2194 3956 1894 3657 
Q 1594 3359 1544 2772 
Q 1750 2925 1990 3001 
Q 2231 3078 2516 3078 
Q 3231 3078 3670 2659 
Q 4109 2241 4109 1563 
Q 4109 813 3618 361 
Q 3128 -91 2303 -91 
Q 1394 -91 895 523 
Q 397 1138 397 2266 
Q 397 3422 980 4083 
Q 1563 4744 2578 4744 
Q 2900 4744 3203 4694 
Q 3506 4644 3803 4544 
z
" transform="scale(0.015625)"/>
        <path id="DejaVuSans-Bold-34" d="M 2356 3675 
L 1038 1722 
L 2356 1722 
L 2356 3675 
z
M 2156 4666 
L 3494 4666 
L 3494 1722 
L 4159 1722 
L 4159 850 
L 3494 850 
L 3494 0 
L 2356 0 
L 2356 850 
L 288 850 
L 288 1881 
L 2156 4666 
z
" transform="scale(0.015625)"/>
       </defs>
       <use xlink:href="#DejaVuSans-Bold-36"/>
       <use xlink:href="#DejaVuSans-Bold-34" transform="translate(69.580078 0)"/>
      </g>
     </g>
    </g>
    <g id="xtick_4">
     <g id="line2d_4">
      <g>
       <use xlink:href="#m5f3a2a8bc7" x="974.106124" y="594.99375" style="stroke: #000000; stroke-width: 0.8"/>
      </g>
     </g>
     <g id="text_4">
      <!-- 128 -->
      <g transform="translate(932.359249 632.3875) scale(0.4 -0.4)">
       <defs>
        <path id="DejaVuSans-Bold-38" d="M 2228 2088 
Q 1891 2088 1709 1903 
Q 1528 1719 1528 1375 
Q 1528 1031 1709 848 
Q 1891 666 2228 666 
Q 2563 666 2741 848 
Q 2919 1031 2919 1375 
Q 2919 1722 2741 1905 
Q 2563 2088 2228 2088 
z
M 1350 2484 
Q 925 2613 709 2878 
Q 494 3144 494 3541 
Q 494 4131 934 4440 
Q 1375 4750 2228 4750 
Q 3075 4750 3515 4442 
Q 3956 4134 3956 3541 
Q 3956 3144 3739 2878 
Q 3522 2613 3097 2484 
Q 3572 2353 3814 2058 
Q 4056 1763 4056 1313 
Q 4056 619 3595 264 
Q 3134 -91 2228 -91 
Q 1319 -91 855 264 
Q 391 619 391 1313 
Q 391 1763 633 2058 
Q 875 2353 1350 2484 
z
M 1631 3419 
Q 1631 3141 1786 2991 
Q 1941 2841 2228 2841 
Q 2509 2841 2662 2991 
Q 2816 3141 2816 3419 
Q 2816 3697 2662 3845 
Q 2509 3994 2228 3994 
Q 1941 3994 1786 3844 
Q 1631 3694 1631 3419 
z
" transform="scale(0.015625)"/>
       </defs>
       <use xlink:href="#DejaVuSans-Bold-31"/>
       <use xlink:href="#DejaVuSans-Bold-32" transform="translate(69.580078 0)"/>
       <use xlink:href="#DejaVuSans-Bold-38" transform="translate(139.160156 0)"/>
      </g>
     </g>
    </g>
    <g id="xtick_5">
     <g id="line2d_5">
      <g>
       <use xlink:href="#m5f3a2a8bc7" x="1222.038439" y="594.99375" style="stroke: #000000; stroke-width: 0.8"/>
      </g>
     </g>
     <g id="text_5">
      <!-- 256 -->
      <g transform="translate(1180.291564 632.3875) scale(0.4 -0.4)">
       <defs>
        <path id="DejaVuSans-Bold-35" d="M 678 4666 
L 3669 4666 
L 3669 3781 
L 1638 3781 
L 1638 3059 
Q 1775 3097 1914 3117 
Q 2053 3138 2203 3138 
Q 3056 3138 3531 2711 
Q 4006 2284 4006 1522 
Q 4006 766 3489 337 
Q 2972 -91 2053 -91 
Q 1656 -91 1267 -14 
Q 878 63 494 219 
L 494 1166 
Q 875 947 1217 837 
Q 1559 728 1863 728 
Q 2300 728 2551 942 
Q 2803 1156 2803 1522 
Q 2803 1891 2551 2103 
Q 2300 2316 1863 2316 
Q 1603 2316 1309 2248 
Q 1016 2181 678 2041 
L 678 4666 
z
" transform="scale(0.015625)"/>
       </defs>
       <use xlink:href="#DejaVuSans-Bold-32"/>
       <use xlink:href="#DejaVuSans-Bold-35" transform="translate(69.580078 0)"/>
       <use xlink:href="#DejaVuSans-Bold-36" transform="translate(139.160156 0)"/>
      </g>
     </g>
    </g>
    <g id="text_6">
     <!-- Threads -->
     <g transform="translate(634.2 673.060625) scale(0.36 -0.36)">
      <defs>
       <path id="DejaVuSans-Bold-54" d="M 31 4666 
L 4331 4666 
L 4331 3756 
L 2784 3756 
L 2784 0 
L 1581 0 
L 1581 3756 
L 31 3756 
L 31 4666 
z
" transform="scale(0.015625)"/>
       <path id="DejaVuSans-Bold-68" d="M 4056 2131 
L 4056 0 
L 2931 0 
L 2931 347 
L 2931 1625 
Q 2931 2084 2911 2256 
Q 2891 2428 2841 2509 
Q 2775 2619 2662 2680 
Q 2550 2741 2406 2741 
Q 2056 2741 1856 2470 
Q 1656 2200 1656 1722 
L 1656 0 
L 538 0 
L 538 4863 
L 1656 4863 
L 1656 2988 
Q 1909 3294 2193 3439 
Q 2478 3584 2822 3584 
Q 3428 3584 3742 3212 
Q 4056 2841 4056 2131 
z
" transform="scale(0.015625)"/>
       <path id="DejaVuSans-Bold-72" d="M 3138 2547 
Q 2991 2616 2845 2648 
Q 2700 2681 2553 2681 
Q 2122 2681 1889 2404 
Q 1656 2128 1656 1613 
L 1656 0 
L 538 0 
L 538 3500 
L 1656 3500 
L 1656 2925 
Q 1872 3269 2151 3426 
Q 2431 3584 2822 3584 
Q 2878 3584 2943 3579 
Q 3009 3575 3134 3559 
L 3138 2547 
z
" transform="scale(0.015625)"/>
       <path id="DejaVuSans-Bold-65" d="M 4031 1759 
L 4031 1441 
L 1416 1441 
Q 1456 1047 1700 850 
Q 1944 653 2381 653 
Q 2734 653 3104 758 
Q 3475 863 3866 1075 
L 3866 213 
Q 3469 63 3072 -14 
Q 2675 -91 2278 -91 
Q 1328 -91 801 392 
Q 275 875 275 1747 
Q 275 2603 792 3093 
Q 1309 3584 2216 3584 
Q 3041 3584 3536 3087 
Q 4031 2591 4031 1759 
z
M 2881 2131 
Q 2881 2450 2695 2645 
Q 2509 2841 2209 2841 
Q 1884 2841 1681 2658 
Q 1478 2475 1428 2131 
L 2881 2131 
z
" transform="scale(0.015625)"/>
       <path id="DejaVuSans-Bold-61" d="M 2106 1575 
Q 1756 1575 1579 1456 
Q 1403 1338 1403 1106 
Q 1403 894 1545 773 
Q 1688 653 1941 653 
Q 2256 653 2472 879 
Q 2688 1106 2688 1447 
L 2688 1575 
L 2106 1575 
z
M 3816 1997 
L 3816 0 
L 2688 0 
L 2688 519 
Q 2463 200 2181 54 
Q 1900 -91 1497 -91 
Q 953 -91 614 226 
Q 275 544 275 1050 
Q 275 1666 698 1953 
Q 1122 2241 2028 2241 
L 2688 2241 
L 2688 2328 
Q 2688 2594 2478 2717 
Q 2269 2841 1825 2841 
Q 1466 2841 1156 2769 
Q 847 2697 581 2553 
L 581 3406 
Q 941 3494 1303 3539 
Q 1666 3584 2028 3584 
Q 2975 3584 3395 3211 
Q 3816 2838 3816 1997 
z
" transform="scale(0.015625)"/>
       <path id="DejaVuSans-Bold-64" d="M 2919 2988 
L 2919 4863 
L 4044 4863 
L 4044 0 
L 2919 0 
L 2919 506 
Q 2688 197 2409 53 
Q 2131 -91 1766 -91 
Q 1119 -91 703 423 
Q 288 938 288 1747 
Q 288 2556 703 3070 
Q 1119 3584 1766 3584 
Q 2128 3584 2408 3439 
Q 2688 3294 2919 2988 
z
M 2181 722 
Q 2541 722 2730 984 
Q 2919 1247 2919 1747 
Q 2919 2247 2730 2509 
Q 2541 2772 2181 2772 
Q 1825 2772 1636 2509 
Q 1447 2247 1447 1747 
Q 1447 1247 1636 984 
Q 1825 722 2181 722 
z
" transform="scale(0.015625)"/>
       <path id="DejaVuSans-Bold-73" d="M 3272 3391 
L 3272 2541 
Q 2913 2691 2578 2766 
Q 2244 2841 1947 2841 
Q 1628 2841 1473 2761 
Q 1319 2681 1319 2516 
Q 1319 2381 1436 2309 
Q 1553 2238 1856 2203 
L 2053 2175 
Q 2913 2066 3209 1816 
Q 3506 1566 3506 1031 
Q 3506 472 3093 190 
Q 2681 -91 1863 -91 
Q 1516 -91 1145 -36 
Q 775 19 384 128 
L 384 978 
Q 719 816 1070 734 
Q 1422 653 1784 653 
Q 2113 653 2278 743 
Q 2444 834 2444 1013 
Q 2444 1163 2330 1236 
Q 2216 1309 1875 1350 
L 1678 1375 
Q 931 1469 631 1722 
Q 331 1975 331 2491 
Q 331 3047 712 3315 
Q 1094 3584 1881 3584 
Q 2191 3584 2531 3537 
Q 2872 3491 3272 3391 
z
" transform="scale(0.015625)"/>
      </defs>
      <use xlink:href="#DejaVuSans-Bold-54"/>
      <use xlink:href="#DejaVuSans-Bold-68" transform="translate(68.212891 0)"/>
      <use xlink:href="#DejaVuSans-Bold-72" transform="translate(139.404297 0)"/>
      <use xlink:href="#DejaVuSans-Bold-65" transform="translate(188.720703 0)"/>
      <use xlink:href="#DejaVuSans-Bold-61" transform="translate(256.542969 0)"/>
      <use xlink:href="#DejaVuSans-Bold-64" transform="translate(324.023438 0)"/>
      <use xlink:href="#DejaVuSans-Bold-73" transform="translate(395.605469 0)"/>
     </g>
    </g>
   </g>
   <g id="matplotlib.axis_2">
    <g id="ytick_1">
     <g id="line2d_6">
      <defs>
       <path id="m12f7ae741f" d="M 0 0 
L -3.5 0 
" style="stroke: #000000; stroke-width: 0.8"/>
      </defs>
      <g>
       <use xlink:href="#m12f7ae741f" x="102.3225" y="594.99375" style="stroke: #000000; stroke-width: 0.8"/>
      </g>
     </g>
     <g id="text_7">
      <!-- $\mathdefault{0}$ -->
      <g transform="translate(67.3225 610.190625) scale(0.4 -0.4)">
       <defs>
        <path id="DejaVuSans-Bold-30" d="M 2944 2338 
Q 2944 3213 2780 3570 
Q 2616 3928 2228 3928 
Q 1841 3928 1675 3570 
Q 1509 3213 1509 2338 
Q 1509 1453 1675 1090 
Q 1841 728 2228 728 
Q 2613 728 2778 1090 
Q 2944 1453 2944 2338 
z
M 4147 2328 
Q 4147 1169 3647 539 
Q 3147 -91 2228 -91 
Q 1306 -91 806 539 
Q 306 1169 306 2328 
Q 306 3491 806 4120 
Q 1306 4750 2228 4750 
Q 3147 4750 3647 4120 
Q 4147 3491 4147 2328 
z
" transform="scale(0.015625)"/>
       </defs>
       <use xlink:href="#DejaVuSans-Bold-30" transform="translate(0 0.78125)"/>
      </g>
     </g>
    </g>
    <g id="ytick_2">
     <g id="line2d_7">
      <g>
       <use xlink:href="#m12f7ae741f" x="102.3225" y="482.402522" style="stroke: #000000; stroke-width: 0.8"/>
      </g>
     </g>
     <g id="text_8">
      <!-- $\mathdefault{1}$ -->
      <g transform="translate(67.3225 497.599397) scale(0.4 -0.4)">
       <use xlink:href="#DejaVuSans-Bold-31" transform="translate(0 0.09375)"/>
      </g>
     </g>
    </g>
    <g id="ytick_3">
     <g id="line2d_8">
      <g>
       <use xlink:href="#m12f7ae741f" x="102.3225" y="369.811293" style="stroke: #000000; stroke-width: 0.8"/>
      </g>
     </g>
     <g id="text_9">
      <!-- $\mathdefault{2}$ -->
      <g transform="translate(67.3225 385.008168) scale(0.4 -0.4)">
       <use xlink:href="#DejaVuSans-Bold-32" transform="translate(0 0.78125)"/>
      </g>
     </g>
    </g>
    <g id="ytick_4">
     <g id="line2d_9">
      <g>
       <use xlink:href="#m12f7ae741f" x="102.3225" y="257.220065" style="stroke: #000000; stroke-width: 0.8"/>
      </g>
     </g>
     <g id="text_10">
      <!-- $\mathdefault{3}$ -->
      <g transform="translate(67.3225 272.41694) scale(0.4 -0.4)">
       <use xlink:href="#DejaVuSans-Bold-33" transform="translate(0 0.78125)"/>
      </g>
     </g>
    </g>
    <g id="ytick_5">
     <g id="line2d_10">
      <g>
       <use xlink:href="#m12f7ae741f" x="102.3225" y="144.628836" style="stroke: #000000; stroke-width: 0.8"/>
      </g>
     </g>
     <g id="text_11">
      <!-- $\mathdefault{4}$ -->
      <g transform="translate(67.3225 159.825711) scale(0.4 -0.4)">
       <use xlink:href="#DejaVuSans-Bold-34" transform="translate(0 0.09375)"/>
      </g>
     </g>
    </g>
    <g id="text_12">
     <!-- Throughput, ops/sec -->
     <g transform="translate(34.554375 526.1775) rotate(-90) scale(0.36 -0.36)">
      <defs>
       <path id="DejaVuSans-Bold-6f" d="M 2203 2784 
Q 1831 2784 1636 2517 
Q 1441 2250 1441 1747 
Q 1441 1244 1636 976 
Q 1831 709 2203 709 
Q 2569 709 2762 976 
Q 2956 1244 2956 1747 
Q 2956 2250 2762 2517 
Q 2569 2784 2203 2784 
z
M 2203 3584 
Q 3106 3584 3614 3096 
Q 4122 2609 4122 1747 
Q 4122 884 3614 396 
Q 3106 -91 2203 -91 
Q 1297 -91 786 396 
Q 275 884 275 1747 
Q 275 2609 786 3096 
Q 1297 3584 2203 3584 
z
" transform="scale(0.015625)"/>
       <path id="DejaVuSans-Bold-75" d="M 500 1363 
L 500 3500 
L 1625 3500 
L 1625 3150 
Q 1625 2866 1622 2436 
Q 1619 2006 1619 1863 
Q 1619 1441 1641 1255 
Q 1663 1069 1716 984 
Q 1784 875 1895 815 
Q 2006 756 2150 756 
Q 2500 756 2700 1025 
Q 2900 1294 2900 1772 
L 2900 3500 
L 4019 3500 
L 4019 0 
L 2900 0 
L 2900 506 
Q 2647 200 2364 54 
Q 2081 -91 1741 -91 
Q 1134 -91 817 281 
Q 500 653 500 1363 
z
" transform="scale(0.015625)"/>
       <path id="DejaVuSans-Bold-67" d="M 2919 594 
Q 2688 288 2409 144 
Q 2131 0 1766 0 
Q 1125 0 706 504 
Q 288 1009 288 1791 
Q 288 2575 706 3076 
Q 1125 3578 1766 3578 
Q 2131 3578 2409 3434 
Q 2688 3291 2919 2981 
L 2919 3500 
L 4044 3500 
L 4044 353 
Q 4044 -491 3511 -936 
Q 2978 -1381 1966 -1381 
Q 1638 -1381 1331 -1331 
Q 1025 -1281 716 -1178 
L 716 -306 
Q 1009 -475 1290 -558 
Q 1572 -641 1856 -641 
Q 2406 -641 2662 -400 
Q 2919 -159 2919 353 
L 2919 594 
z
M 2181 2772 
Q 1834 2772 1640 2515 
Q 1447 2259 1447 1791 
Q 1447 1309 1634 1061 
Q 1822 813 2181 813 
Q 2531 813 2725 1069 
Q 2919 1325 2919 1791 
Q 2919 2259 2725 2515 
Q 2531 2772 2181 2772 
z
" transform="scale(0.015625)"/>
       <path id="DejaVuSans-Bold-70" d="M 1656 506 
L 1656 -1331 
L 538 -1331 
L 538 3500 
L 1656 3500 
L 1656 2988 
Q 1888 3294 2169 3439 
Q 2450 3584 2816 3584 
Q 3463 3584 3878 3070 
Q 4294 2556 4294 1747 
Q 4294 938 3878 423 
Q 3463 -91 2816 -91 
Q 2450 -91 2169 54 
Q 1888 200 1656 506 
z
M 2400 2772 
Q 2041 2772 1848 2508 
Q 1656 2244 1656 1747 
Q 1656 1250 1848 986 
Q 2041 722 2400 722 
Q 2759 722 2948 984 
Q 3138 1247 3138 1747 
Q 3138 2247 2948 2509 
Q 2759 2772 2400 2772 
z
" transform="scale(0.015625)"/>
       <path id="DejaVuSans-Bold-74" d="M 1759 4494 
L 1759 3500 
L 2913 3500 
L 2913 2700 
L 1759 2700 
L 1759 1216 
Q 1759 972 1856 886 
Q 1953 800 2241 800 
L 2816 800 
L 2816 0 
L 1856 0 
Q 1194 0 917 276 
Q 641 553 641 1216 
L 641 2700 
L 84 2700 
L 84 3500 
L 641 3500 
L 641 4494 
L 1759 4494 
z
" transform="scale(0.015625)"/>
       <path id="DejaVuSans-Bold-2c" d="M 653 1209 
L 1778 1209 
L 1778 256 
L 1006 -909 
L 341 -909 
L 653 256 
L 653 1209 
z
" transform="scale(0.015625)"/>
       <path id="DejaVuSans-Bold-20" transform="scale(0.015625)"/>
       <path id="DejaVuSans-Bold-2f" d="M 1644 4666 
L 2338 4666 
L 691 -594 
L 0 -594 
L 1644 4666 
z
" transform="scale(0.015625)"/>
       <path id="DejaVuSans-Bold-63" d="M 3366 3391 
L 3366 2478 
Q 3138 2634 2908 2709 
Q 2678 2784 2431 2784 
Q 1963 2784 1702 2511 
Q 1441 2238 1441 1747 
Q 1441 1256 1702 982 
Q 1963 709 2431 709 
Q 2694 709 2930 787 
Q 3166 866 3366 1019 
L 3366 103 
Q 3103 6 2833 -42 
Q 2563 -91 2291 -91 
Q 1344 -91 809 395 
Q 275 881 275 1747 
Q 275 2613 809 3098 
Q 1344 3584 2291 3584 
Q 2566 3584 2833 3536 
Q 3100 3488 3366 3391 
z
" transform="scale(0.015625)"/>
      </defs>
      <use xlink:href="#DejaVuSans-Bold-54"/>
      <use xlink:href="#DejaVuSans-Bold-68" transform="translate(68.212891 0)"/>
      <use xlink:href="#DejaVuSans-Bold-72" transform="translate(139.404297 0)"/>
      <use xlink:href="#DejaVuSans-Bold-6f" transform="translate(188.720703 0)"/>
      <use xlink:href="#DejaVuSans-Bold-75" transform="translate(257.421875 0)"/>
      <use xlink:href="#DejaVuSans-Bold-67" transform="translate(328.613281 0)"/>
      <use xlink:href="#DejaVuSans-Bold-68" transform="translate(400.195312 0)"/>
      <use xlink:href="#DejaVuSans-Bold-70" transform="translate(471.386719 0)"/>
      <use xlink:href="#DejaVuSans-Bold-75" transform="translate(542.96875 0)"/>
      <use xlink:href="#DejaVuSans-Bold-74" transform="translate(614.160156 0)"/>
      <use xlink:href="#DejaVuSans-Bold-2c" transform="translate(661.962891 0)"/>
      <use xlink:href="#DejaVuSans-Bold-20" transform="translate(699.951172 0)"/>
      <use xlink:href="#DejaVuSans-Bold-6f" transform="translate(734.765625 0)"/>
      <use xlink:href="#DejaVuSans-Bold-70" transform="translate(803.466797 0)"/>
      <use xlink:href="#DejaVuSans-Bold-73" transform="translate(875.048828 0)"/>
      <use xlink:href="#DejaVuSans-Bold-2f" transform="translate(934.570312 0)"/>
      <use xlink:href="#DejaVuSans-Bold-73" transform="translate(971.09375 0)"/>
      <use xlink:href="#DejaVuSans-Bold-65" transform="translate(1030.615234 0)"/>
      <use xlink:href="#DejaVuSans-Bold-63" transform="translate(1098.4375 0)"/>
     </g>
    </g>
    <g id="text_13">
     <!-- $\times\mathdefault{10^{7}}\mathdefault{}$ -->
     <g transform="translate(102.3225 37.59375) scale(0.4 -0.4)">
      <defs>
       <path id="DejaVuSans-d7" d="M 4488 3438 
L 3059 2003 
L 4488 575 
L 4116 197 
L 2681 1631 
L 1247 197 
L 878 575 
L 2303 2003 
L 878 3438 
L 1247 3816 
L 2681 2381 
L 4116 3816 
L 4488 3438 
z
" transform="scale(0.015625)"/>
       <path id="DejaVuSans-Bold-37" d="M 428 4666 
L 3944 4666 
L 3944 3988 
L 2125 0 
L 953 0 
L 2675 3781 
L 428 3781 
L 428 4666 
z
" transform="scale(0.015625)"/>
      </defs>
      <use xlink:href="#DejaVuSans-d7" transform="translate(0 0.684375)"/>
      <use xlink:href="#DejaVuSans-Bold-31" transform="translate(83.789062 0.684375)"/>
      <use xlink:href="#DejaVuSans-Bold-30" transform="translate(153.369141 0.684375)"/>
      <use xlink:href="#DejaVuSans-Bold-37" transform="translate(223.90625 38.965625) scale(0.7)"/>
     </g>
    </g>
   </g>
   <g id="patch_73">
    <path d="M 102.3225 594.99375 
L 102.3225 40.59375 
" style="fill: none; stroke: #000000; stroke-width: 0.8; stroke-linejoin: miter; stroke-linecap: square"/>
   </g>
   <g id="patch_74">
    <path d="M 1329.9225 594.99375 
L 1329.9225 40.59375 
" style="fill: none; stroke: #000000; stroke-width: 0.8; stroke-linejoin: miter; stroke-linecap: square"/>
   </g>
   <g id="patch_75">
    <path d="M 102.3225 594.99375 
L 1329.9225 594.99375 
" style="fill: none; stroke: #000000; stroke-width: 0.8; stroke-linejoin: miter; stroke-linecap: square"/>
   </g>
   <g id="patch_76">
    <path d="M 102.3225 40.59375 
L 1329.9225 40.59375 
" style="fill: none; stroke: #000000; stroke-width: 0.8; stroke-linejoin: miter; stroke-linecap: square"/>
   </g>
   <g id="legend_1">
    <g id="patch_77">
     <path d="M 108.7225 71.30875 
L 159.9225 71.30875 
L 159.9225 48.90875 
L 108.7225 48.90875 
z
" style="fill: url(#h4a65a0283b); stroke: #000000; stroke-linejoin: miter"/>
    </g>
    <g id="text_14">
     <!-- HMList-NR -->
     <g transform="translate(163.1225 71.30875) scale(0.32 -0.32)">
      <defs>
       <path id="DejaVuSans-Bold-48" d="M 588 4666 
L 1791 4666 
L 1791 2888 
L 3566 2888 
L 3566 4666 
L 4769 4666 
L 4769 0 
L 3566 0 
L 3566 1978 
L 1791 1978 
L 1791 0 
L 588 0 
L 588 4666 
z
" transform="scale(0.015625)"/>
       <path id="DejaVuSans-Bold-4d" d="M 588 4666 
L 2119 4666 
L 3181 2169 
L 4250 4666 
L 5778 4666 
L 5778 0 
L 4641 0 
L 4641 3413 
L 3566 897 
L 2803 897 
L 1728 3413 
L 1728 0 
L 588 0 
L 588 4666 
z
" transform="scale(0.015625)"/>
       <path id="DejaVuSans-Bold-4c" d="M 588 4666 
L 1791 4666 
L 1791 909 
L 3903 909 
L 3903 0 
L 588 0 
L 588 4666 
z
" transform="scale(0.015625)"/>
       <path id="DejaVuSans-Bold-69" d="M 538 3500 
L 1656 3500 
L 1656 0 
L 538 0 
L 538 3500 
z
M 538 4863 
L 1656 4863 
L 1656 3950 
L 538 3950 
L 538 4863 
z
" transform="scale(0.015625)"/>
       <path id="DejaVuSans-Bold-2d" d="M 347 2297 
L 2309 2297 
L 2309 1388 
L 347 1388 
L 347 2297 
z
" transform="scale(0.015625)"/>
       <path id="DejaVuSans-Bold-4e" d="M 588 4666 
L 1931 4666 
L 3628 1466 
L 3628 4666 
L 4769 4666 
L 4769 0 
L 3425 0 
L 1728 3200 
L 1728 0 
L 588 0 
L 588 4666 
z
" transform="scale(0.015625)"/>
       <path id="DejaVuSans-Bold-52" d="M 2297 2597 
Q 2675 2597 2839 2737 
Q 3003 2878 3003 3200 
Q 3003 3519 2839 3656 
Q 2675 3794 2297 3794 
L 1791 3794 
L 1791 2597 
L 2297 2597 
z
M 1791 1766 
L 1791 0 
L 588 0 
L 588 4666 
L 2425 4666 
Q 3347 4666 3776 4356 
Q 4206 4047 4206 3378 
Q 4206 2916 3982 2619 
Q 3759 2322 3309 2181 
Q 3556 2125 3751 1926 
Q 3947 1728 4147 1325 
L 4800 0 
L 3519 0 
L 2950 1159 
Q 2778 1509 2601 1637 
Q 2425 1766 2131 1766 
L 1791 1766 
z
" transform="scale(0.015625)"/>
      </defs>
      <use xlink:href="#DejaVuSans-Bold-48"/>
      <use xlink:href="#DejaVuSans-Bold-4d" transform="translate(83.691406 0)"/>
      <use xlink:href="#DejaVuSans-Bold-4c" transform="translate(183.203125 0)"/>
      <use xlink:href="#DejaVuSans-Bold-69" transform="translate(246.923828 0)"/>
      <use xlink:href="#DejaVuSans-Bold-73" transform="translate(281.201172 0)"/>
      <use xlink:href="#DejaVuSans-Bold-74" transform="translate(340.722656 0)"/>
      <use xlink:href="#DejaVuSans-Bold-2d" transform="translate(388.525391 0)"/>
      <use xlink:href="#DejaVuSans-Bold-4e" transform="translate(430.029297 0)"/>
      <use xlink:href="#DejaVuSans-Bold-52" transform="translate(513.720703 0)"/>
     </g>
    </g>
    <g id="patch_78">
     <path d="M 108.7225 108.67875 
L 159.9225 108.67875 
L 159.9225 86.27875 
L 108.7225 86.27875 
z
" style="fill: url(#he3984c66f3); stroke: #000000; stroke-linejoin: miter"/>
    </g>
    <g id="text_15">
     <!-- HList-NR -->
     <g transform="translate(163.1225 108.67875) scale(0.32 -0.32)">
      <use xlink:href="#DejaVuSans-Bold-48"/>
      <use xlink:href="#DejaVuSans-Bold-4c" transform="translate(83.691406 0)"/>
      <use xlink:href="#DejaVuSans-Bold-69" transform="translate(147.412109 0)"/>
      <use xlink:href="#DejaVuSans-Bold-73" transform="translate(181.689453 0)"/>
      <use xlink:href="#DejaVuSans-Bold-74" transform="translate(241.210938 0)"/>
      <use xlink:href="#DejaVuSans-Bold-2d" transform="translate(289.013672 0)"/>
      <use xlink:href="#DejaVuSans-Bold-4e" transform="translate(330.517578 0)"/>
      <use xlink:href="#DejaVuSans-Bold-52" transform="translate(414.208984 0)"/>
     </g>
    </g>
    <g id="patch_79">
     <path d="M 108.7225 146.04875 
L 159.9225 146.04875 
L 159.9225 123.64875 
L 108.7225 123.64875 
z
" style="fill: url(#h28403a0647); stroke: #000000; stroke-linejoin: miter"/>
    </g>
    <g id="text_16">
     <!-- HMList-EBR -->
     <g transform="translate(163.1225 146.04875) scale(0.32 -0.32)">
      <defs>
       <path id="DejaVuSans-Bold-45" d="M 588 4666 
L 3834 4666 
L 3834 3756 
L 1791 3756 
L 1791 2888 
L 3713 2888 
L 3713 1978 
L 1791 1978 
L 1791 909 
L 3903 909 
L 3903 0 
L 588 0 
L 588 4666 
z
" transform="scale(0.015625)"/>
       <path id="DejaVuSans-Bold-42" d="M 2456 2859 
Q 2741 2859 2887 2984 
Q 3034 3109 3034 3353 
Q 3034 3594 2887 3720 
Q 2741 3847 2456 3847 
L 1791 3847 
L 1791 2859 
L 2456 2859 
z
M 2497 819 
Q 2859 819 3042 972 
Q 3225 1125 3225 1434 
Q 3225 1738 3044 1889 
Q 2863 2041 2497 2041 
L 1791 2041 
L 1791 819 
L 2497 819 
z
M 3616 2497 
Q 4003 2384 4215 2081 
Q 4428 1778 4428 1338 
Q 4428 663 3972 331 
Q 3516 0 2584 0 
L 588 0 
L 588 4666 
L 2394 4666 
Q 3366 4666 3802 4372 
Q 4238 4078 4238 3431 
Q 4238 3091 4078 2852 
Q 3919 2613 3616 2497 
z
" transform="scale(0.015625)"/>
      </defs>
      <use xlink:href="#DejaVuSans-Bold-48"/>
      <use xlink:href="#DejaVuSans-Bold-4d" transform="translate(83.691406 0)"/>
      <use xlink:href="#DejaVuSans-Bold-4c" transform="translate(183.203125 0)"/>
      <use xlink:href="#DejaVuSans-Bold-69" transform="translate(246.923828 0)"/>
      <use xlink:href="#DejaVuSans-Bold-73" transform="translate(281.201172 0)"/>
      <use xlink:href="#DejaVuSans-Bold-74" transform="translate(340.722656 0)"/>
      <use xlink:href="#DejaVuSans-Bold-2d" transform="translate(388.525391 0)"/>
      <use xlink:href="#DejaVuSans-Bold-45" transform="translate(430.029297 0)"/>
      <use xlink:href="#DejaVuSans-Bold-42" transform="translate(498.339844 0)"/>
      <use xlink:href="#DejaVuSans-Bold-52" transform="translate(574.560547 0)"/>
     </g>
    </g>
    <g id="patch_80">
     <path d="M 108.7225 183.41875 
L 159.9225 183.41875 
L 159.9225 161.01875 
L 108.7225 161.01875 
z
" style="fill: url(#h584bb1c787); stroke: #000000; stroke-linejoin: miter"/>
    </g>
    <g id="text_17">
     <!-- HList-EBR -->
     <g transform="translate(163.1225 183.41875) scale(0.32 -0.32)">
      <use xlink:href="#DejaVuSans-Bold-48"/>
      <use xlink:href="#DejaVuSans-Bold-4c" transform="translate(83.691406 0)"/>
      <use xlink:href="#DejaVuSans-Bold-69" transform="translate(147.412109 0)"/>
      <use xlink:href="#DejaVuSans-Bold-73" transform="translate(181.689453 0)"/>
      <use xlink:href="#DejaVuSans-Bold-74" transform="translate(241.210938 0)"/>
      <use xlink:href="#DejaVuSans-Bold-2d" transform="translate(289.013672 0)"/>
      <use xlink:href="#DejaVuSans-Bold-45" transform="translate(330.517578 0)"/>
      <use xlink:href="#DejaVuSans-Bold-42" transform="translate(398.828125 0)"/>
      <use xlink:href="#DejaVuSans-Bold-52" transform="translate(475.048828 0)"/>
     </g>
    </g>
    <g id="patch_81">
     <path d="M 108.7225 220.78875 
L 159.9225 220.78875 
L 159.9225 198.38875 
L 108.7225 198.38875 
z
" style="fill: url(#h5c63b05ab4); stroke: #000000; stroke-linejoin: miter"/>
    </g>
    <g id="text_18">
     <!-- HMList-HP -->
     <g transform="translate(163.1225 220.78875) scale(0.32 -0.32)">
      <defs>
       <path id="DejaVuSans-Bold-50" d="M 588 4666 
L 2584 4666 
Q 3475 4666 3951 4270 
Q 4428 3875 4428 3144 
Q 4428 2409 3951 2014 
Q 3475 1619 2584 1619 
L 1791 1619 
L 1791 0 
L 588 0 
L 588 4666 
z
M 1791 3794 
L 1791 2491 
L 2456 2491 
Q 2806 2491 2997 2661 
Q 3188 2831 3188 3144 
Q 3188 3456 2997 3625 
Q 2806 3794 2456 3794 
L 1791 3794 
z
" transform="scale(0.015625)"/>
      </defs>
      <use xlink:href="#DejaVuSans-Bold-48"/>
      <use xlink:href="#DejaVuSans-Bold-4d" transform="translate(83.691406 0)"/>
      <use xlink:href="#DejaVuSans-Bold-4c" transform="translate(183.203125 0)"/>
      <use xlink:href="#DejaVuSans-Bold-69" transform="translate(246.923828 0)"/>
      <use xlink:href="#DejaVuSans-Bold-73" transform="translate(281.201172 0)"/>
      <use xlink:href="#DejaVuSans-Bold-74" transform="translate(340.722656 0)"/>
      <use xlink:href="#DejaVuSans-Bold-2d" transform="translate(388.525391 0)"/>
      <use xlink:href="#DejaVuSans-Bold-48" transform="translate(430.029297 0)"/>
      <use xlink:href="#DejaVuSans-Bold-50" transform="translate(513.720703 0)"/>
     </g>
    </g>
    <g id="patch_82">
     <path d="M 381.2175 71.30875 
L 432.4175 71.30875 
L 432.4175 48.90875 
L 381.2175 48.90875 
z
" style="fill: url(#h958db1800d); stroke: #000000; stroke-linejoin: miter"/>
    </g>
    <g id="text_19">
     <!-- HList-HP -->
     <g transform="translate(435.6175 71.30875) scale(0.32 -0.32)">
      <use xlink:href="#DejaVuSans-Bold-48"/>
      <use xlink:href="#DejaVuSans-Bold-4c" transform="translate(83.691406 0)"/>
      <use xlink:href="#DejaVuSans-Bold-69" transform="translate(147.412109 0)"/>
      <use xlink:href="#DejaVuSans-Bold-73" transform="translate(181.689453 0)"/>
      <use xlink:href="#DejaVuSans-Bold-74" transform="translate(241.210938 0)"/>
      <use xlink:href="#DejaVuSans-Bold-2d" transform="translate(289.013672 0)"/>
      <use xlink:href="#DejaVuSans-Bold-48" transform="translate(330.517578 0)"/>
      <use xlink:href="#DejaVuSans-Bold-50" transform="translate(414.208984 0)"/>
     </g>
    </g>
    <g id="patch_83">
     <path d="M 381.2175 108.67875 
L 432.4175 108.67875 
L 432.4175 86.27875 
L 381.2175 86.27875 
z
" style="fill: url(#hb86121fc80); stroke: #000000; stroke-linejoin: miter"/>
    </g>
    <g id="text_20">
     <!-- HMList-HPopt -->
     <g transform="translate(435.6175 108.67875) scale(0.32 -0.32)">
      <use xlink:href="#DejaVuSans-Bold-48"/>
      <use xlink:href="#DejaVuSans-Bold-4d" transform="translate(83.691406 0)"/>
      <use xlink:href="#DejaVuSans-Bold-4c" transform="translate(183.203125 0)"/>
      <use xlink:href="#DejaVuSans-Bold-69" transform="translate(246.923828 0)"/>
      <use xlink:href="#DejaVuSans-Bold-73" transform="translate(281.201172 0)"/>
      <use xlink:href="#DejaVuSans-Bold-74" transform="translate(340.722656 0)"/>
      <use xlink:href="#DejaVuSans-Bold-2d" transform="translate(388.525391 0)"/>
      <use xlink:href="#DejaVuSans-Bold-48" transform="translate(430.029297 0)"/>
      <use xlink:href="#DejaVuSans-Bold-50" transform="translate(513.720703 0)"/>
      <use xlink:href="#DejaVuSans-Bold-6f" transform="translate(587.011719 0)"/>
      <use xlink:href="#DejaVuSans-Bold-70" transform="translate(655.712891 0)"/>
      <use xlink:href="#DejaVuSans-Bold-74" transform="translate(727.294922 0)"/>
     </g>
    </g>
    <g id="patch_84">
     <path d="M 381.2175 146.04875 
L 432.4175 146.04875 
L 432.4175 123.64875 
L 381.2175 123.64875 
z
" style="fill: url(#h91d0a0d2df); stroke: #000000; stroke-linejoin: miter"/>
    </g>
    <g id="text_21">
     <!-- HList-HPopt -->
     <g transform="translate(435.6175 146.04875) scale(0.32 -0.32)">
      <use xlink:href="#DejaVuSans-Bold-48"/>
      <use xlink:href="#DejaVuSans-Bold-4c" transform="translate(83.691406 0)"/>
      <use xlink:href="#DejaVuSans-Bold-69" transform="translate(147.412109 0)"/>
      <use xlink:href="#DejaVuSans-Bold-73" transform="translate(181.689453 0)"/>
      <use xlink:href="#DejaVuSans-Bold-74" transform="translate(241.210938 0)"/>
      <use xlink:href="#DejaVuSans-Bold-2d" transform="translate(289.013672 0)"/>
      <use xlink:href="#DejaVuSans-Bold-48" transform="translate(330.517578 0)"/>
      <use xlink:href="#DejaVuSans-Bold-50" transform="translate(414.208984 0)"/>
      <use xlink:href="#DejaVuSans-Bold-6f" transform="translate(487.5 0)"/>
      <use xlink:href="#DejaVuSans-Bold-70" transform="translate(556.201172 0)"/>
      <use xlink:href="#DejaVuSans-Bold-74" transform="translate(627.783203 0)"/>
     </g>
    </g>
    <g id="patch_85">
     <path d="M 381.2175 183.41875 
L 432.4175 183.41875 
L 432.4175 161.01875 
L 381.2175 161.01875 
z
" style="fill: url(#he737cfb5b1); stroke: #000000; stroke-linejoin: miter"/>
    </g>
    <g id="text_22">
     <!-- HMList-IBR -->
     <g transform="translate(435.6175 183.41875) scale(0.32 -0.32)">
      <defs>
       <path id="DejaVuSans-Bold-49" d="M 588 4666 
L 1791 4666 
L 1791 0 
L 588 0 
L 588 4666 
z
" transform="scale(0.015625)"/>
      </defs>
      <use xlink:href="#DejaVuSans-Bold-48"/>
      <use xlink:href="#DejaVuSans-Bold-4d" transform="translate(83.691406 0)"/>
      <use xlink:href="#DejaVuSans-Bold-4c" transform="translate(183.203125 0)"/>
      <use xlink:href="#DejaVuSans-Bold-69" transform="translate(246.923828 0)"/>
      <use xlink:href="#DejaVuSans-Bold-73" transform="translate(281.201172 0)"/>
      <use xlink:href="#DejaVuSans-Bold-74" transform="translate(340.722656 0)"/>
      <use xlink:href="#DejaVuSans-Bold-2d" transform="translate(388.525391 0)"/>
      <use xlink:href="#DejaVuSans-Bold-49" transform="translate(430.029297 0)"/>
      <use xlink:href="#DejaVuSans-Bold-42" transform="translate(467.236328 0)"/>
      <use xlink:href="#DejaVuSans-Bold-52" transform="translate(543.457031 0)"/>
     </g>
    </g>
    <g id="patch_86">
     <path d="M 381.2175 220.78875 
L 432.4175 220.78875 
L 432.4175 198.38875 
L 381.2175 198.38875 
z
" style="fill: url(#he2ee270d26); stroke: #000000; stroke-linejoin: miter"/>
    </g>
    <g id="text_23">
     <!-- HList-IBR -->
     <g transform="translate(435.6175 220.78875) scale(0.32 -0.32)">
      <use xlink:href="#DejaVuSans-Bold-48"/>
      <use xlink:href="#DejaVuSans-Bold-4c" transform="translate(83.691406 0)"/>
      <use xlink:href="#DejaVuSans-Bold-69" transform="translate(147.412109 0)"/>
      <use xlink:href="#DejaVuSans-Bold-73" transform="translate(181.689453 0)"/>
      <use xlink:href="#DejaVuSans-Bold-74" transform="translate(241.210938 0)"/>
      <use xlink:href="#DejaVuSans-Bold-2d" transform="translate(289.013672 0)"/>
      <use xlink:href="#DejaVuSans-Bold-49" transform="translate(330.517578 0)"/>
      <use xlink:href="#DejaVuSans-Bold-42" transform="translate(367.724609 0)"/>
      <use xlink:href="#DejaVuSans-Bold-52" transform="translate(443.945312 0)"/>
     </g>
    </g>
    <g id="patch_87">
     <path d="M 693.2425 71.30875 
L 744.4425 71.30875 
L 744.4425 48.90875 
L 693.2425 48.90875 
z
" style="fill: url(#hd6138107a8); stroke: #000000; stroke-linejoin: miter"/>
    </g>
    <g id="text_24">
     <!-- HMList-HE -->
     <g transform="translate(747.6425 71.30875) scale(0.32 -0.32)">
      <use xlink:href="#DejaVuSans-Bold-48"/>
      <use xlink:href="#DejaVuSans-Bold-4d" transform="translate(83.691406 0)"/>
      <use xlink:href="#DejaVuSans-Bold-4c" transform="translate(183.203125 0)"/>
      <use xlink:href="#DejaVuSans-Bold-69" transform="translate(246.923828 0)"/>
      <use xlink:href="#DejaVuSans-Bold-73" transform="translate(281.201172 0)"/>
      <use xlink:href="#DejaVuSans-Bold-74" transform="translate(340.722656 0)"/>
      <use xlink:href="#DejaVuSans-Bold-2d" transform="translate(388.525391 0)"/>
      <use xlink:href="#DejaVuSans-Bold-48" transform="translate(430.029297 0)"/>
      <use xlink:href="#DejaVuSans-Bold-45" transform="translate(513.720703 0)"/>
     </g>
    </g>
    <g id="patch_88">
     <path d="M 693.2425 108.67875 
L 744.4425 108.67875 
L 744.4425 86.27875 
L 693.2425 86.27875 
z
" style="fill: url(#h2e315ec2ef); stroke: #000000; stroke-linejoin: miter"/>
    </g>
    <g id="text_25">
     <!-- HList-HE -->
     <g transform="translate(747.6425 108.67875) scale(0.32 -0.32)">
      <use xlink:href="#DejaVuSans-Bold-48"/>
      <use xlink:href="#DejaVuSans-Bold-4c" transform="translate(83.691406 0)"/>
      <use xlink:href="#DejaVuSans-Bold-69" transform="translate(147.412109 0)"/>
      <use xlink:href="#DejaVuSans-Bold-73" transform="translate(181.689453 0)"/>
      <use xlink:href="#DejaVuSans-Bold-74" transform="translate(241.210938 0)"/>
      <use xlink:href="#DejaVuSans-Bold-2d" transform="translate(289.013672 0)"/>
      <use xlink:href="#DejaVuSans-Bold-48" transform="translate(330.517578 0)"/>
      <use xlink:href="#DejaVuSans-Bold-45" transform="translate(414.208984 0)"/>
     </g>
    </g>
    <g id="patch_89">
     <path d="M 693.2425 146.04875 
L 744.4425 146.04875 
L 744.4425 123.64875 
L 693.2425 123.64875 
z
" style="fill: url(#h5dedc3aa81); stroke: #000000; stroke-linejoin: miter"/>
    </g>
    <g id="text_26">
     <!-- HMList-HLN -->
     <g transform="translate(747.6425 146.04875) scale(0.32 -0.32)">
      <use xlink:href="#DejaVuSans-Bold-48"/>
      <use xlink:href="#DejaVuSans-Bold-4d" transform="translate(83.691406 0)"/>
      <use xlink:href="#DejaVuSans-Bold-4c" transform="translate(183.203125 0)"/>
      <use xlink:href="#DejaVuSans-Bold-69" transform="translate(246.923828 0)"/>
      <use xlink:href="#DejaVuSans-Bold-73" transform="translate(281.201172 0)"/>
      <use xlink:href="#DejaVuSans-Bold-74" transform="translate(340.722656 0)"/>
      <use xlink:href="#DejaVuSans-Bold-2d" transform="translate(388.525391 0)"/>
      <use xlink:href="#DejaVuSans-Bold-48" transform="translate(430.029297 0)"/>
      <use xlink:href="#DejaVuSans-Bold-4c" transform="translate(513.720703 0)"/>
      <use xlink:href="#DejaVuSans-Bold-4e" transform="translate(577.441406 0)"/>
     </g>
    </g>
    <g id="patch_90">
     <path d="M 693.2425 183.41875 
L 744.4425 183.41875 
L 744.4425 161.01875 
L 693.2425 161.01875 
z
" style="fill: url(#h8a402738a5); stroke: #000000; stroke-linejoin: miter"/>
    </g>
    <g id="text_27">
     <!-- HList-HLN -->
     <g transform="translate(747.6425 183.41875) scale(0.32 -0.32)">
      <use xlink:href="#DejaVuSans-Bold-48"/>
      <use xlink:href="#DejaVuSans-Bold-4c" transform="translate(83.691406 0)"/>
      <use xlink:href="#DejaVuSans-Bold-69" transform="translate(147.412109 0)"/>
      <use xlink:href="#DejaVuSans-Bold-73" transform="translate(181.689453 0)"/>
      <use xlink:href="#DejaVuSans-Bold-74" transform="translate(241.210938 0)"/>
      <use xlink:href="#DejaVuSans-Bold-2d" transform="translate(289.013672 0)"/>
      <use xlink:href="#DejaVuSans-Bold-48" transform="translate(330.517578 0)"/>
      <use xlink:href="#DejaVuSans-Bold-4c" transform="translate(414.208984 0)"/>
      <use xlink:href="#DejaVuSans-Bold-4e" transform="translate(477.929688 0)"/>
     </g>
    </g>
   </g>
  </g>
 </g>
 <defs>
  <clipPath id="p846f1556b8">
   <rect x="102.3225" y="40.59375" width="1227.6" height="554.4"/>
  </clipPath>
 </defs>
 <defs>
  <pattern id="h4a65a0283b" patternUnits="userSpaceOnUse" x="0" y="0" width="72" height="72">
   <rect x="0" y="0" width="73" height="73" fill="#9467bd"/>
   <path d="M -36 36 
L 36 -36 
M -30 42 
L 42 -30 
M -24 48 
L 48 -24 
M -18 54 
L 54 -18 
M -12 60 
L 60 -12 
M -6 66 
L 66 -6 
M 0 72 
L 72 0 
M 6 78 
L 78 6 
M 12 84 
L 84 12 
M 18 90 
L 90 18 
M 24 96 
L 96 24 
M 30 102 
L 102 30 
M 36 108 
L 108 36 
" style="fill: #000000; stroke: #000000; stroke-width: 1.0; stroke-linecap: butt; stroke-linejoin: miter"/>
  </pattern>
  <pattern id="he3984c66f3" patternUnits="userSpaceOnUse" x="0" y="0" width="72" height="72">
   <rect x="0" y="0" width="73" height="73" fill="#9467bd"/>
   <path d="M 0 69 
L 72 69 
M 0 63 
L 72 63 
M 0 57 
L 72 57 
M 0 51 
L 72 51 
M 0 45 
L 72 45 
M 0 39 
L 72 39 
M 0 33 
L 72 33 
M 0 27 
L 72 27 
M 0 21 
L 72 21 
M 0 15 
L 72 15 
M 0 9 
L 72 9 
M 0 3 
L 72 3 
M 3 72 
L 3 0 
M 9 72 
L 9 0 
M 15 72 
L 15 0 
M 21 72 
L 21 0 
M 27 72 
L 27 0 
M 33 72 
L 33 0 
M 39 72 
L 39 0 
M 45 72 
L 45 0 
M 51 72 
L 51 0 
M 57 72 
L 57 0 
M 63 72 
L 63 0 
M 69 72 
L 69 0 
" style="fill: #000000; stroke: #000000; stroke-width: 1.0; stroke-linecap: butt; stroke-linejoin: miter"/>
  </pattern>
  <pattern id="h28403a0647" patternUnits="userSpaceOnUse" x="0" y="0" width="72" height="72">
   <rect x="0" y="0" width="73" height="73" fill="#8c564b"/>
   <path d="M -36 36 
L 36 -36 
M -30 42 
L 42 -30 
M -24 48 
L 48 -24 
M -18 54 
L 54 -18 
M -12 60 
L 60 -12 
M -6 66 
L 66 -6 
M 0 72 
L 72 0 
M 6 78 
L 78 6 
M 12 84 
L 84 12 
M 18 90 
L 90 18 
M 24 96 
L 96 24 
M 30 102 
L 102 30 
M 36 108 
L 108 36 
" style="fill: #000000; stroke: #000000; stroke-width: 1.0; stroke-linecap: butt; stroke-linejoin: miter"/>
  </pattern>
  <pattern id="h584bb1c787" patternUnits="userSpaceOnUse" x="0" y="0" width="72" height="72">
   <rect x="0" y="0" width="73" height="73" fill="#8c564b"/>
   <path d="M 0 69 
L 72 69 
M 0 63 
L 72 63 
M 0 57 
L 72 57 
M 0 51 
L 72 51 
M 0 45 
L 72 45 
M 0 39 
L 72 39 
M 0 33 
L 72 33 
M 0 27 
L 72 27 
M 0 21 
L 72 21 
M 0 15 
L 72 15 
M 0 9 
L 72 9 
M 0 3 
L 72 3 
M 3 72 
L 3 0 
M 9 72 
L 9 0 
M 15 72 
L 15 0 
M 21 72 
L 21 0 
M 27 72 
L 27 0 
M 33 72 
L 33 0 
M 39 72 
L 39 0 
M 45 72 
L 45 0 
M 51 72 
L 51 0 
M 57 72 
L 57 0 
M 63 72 
L 63 0 
M 69 72 
L 69 0 
" style="fill: #000000; stroke: #000000; stroke-width: 1.0; stroke-linecap: butt; stroke-linejoin: miter"/>
  </pattern>
  <pattern id="h5c63b05ab4" patternUnits="userSpaceOnUse" x="0" y="0" width="72" height="72">
   <rect x="0" y="0" width="73" height="73" fill="#17becf"/>
   <path d="M -36 36 
L 36 -36 
M -30 42 
L 42 -30 
M -24 48 
L 48 -24 
M -18 54 
L 54 -18 
M -12 60 
L 60 -12 
M -6 66 
L 66 -6 
M 0 72 
L 72 0 
M 6 78 
L 78 6 
M 12 84 
L 84 12 
M 18 90 
L 90 18 
M 24 96 
L 96 24 
M 30 102 
L 102 30 
M 36 108 
L 108 36 
" style="fill: #000000; stroke: #000000; stroke-width: 1.0; stroke-linecap: butt; stroke-linejoin: miter"/>
  </pattern>
  <pattern id="h958db1800d" patternUnits="userSpaceOnUse" x="0" y="0" width="72" height="72">
   <rect x="0" y="0" width="73" height="73" fill="#17becf"/>
   <path d="M 0 69 
L 72 69 
M 0 63 
L 72 63 
M 0 57 
L 72 57 
M 0 51 
L 72 51 
M 0 45 
L 72 45 
M 0 39 
L 72 39 
M 0 33 
L 72 33 
M 0 27 
L 72 27 
M 0 21 
L 72 21 
M 0 15 
L 72 15 
M 0 9 
L 72 9 
M 0 3 
L 72 3 
M 3 72 
L 3 0 
M 9 72 
L 9 0 
M 15 72 
L 15 0 
M 21 72 
L 21 0 
M 27 72 
L 27 0 
M 33 72 
L 33 0 
M 39 72 
L 39 0 
M 45 72 
L 45 0 
M 51 72 
L 51 0 
M 57 72 
L 57 0 
M 63 72 
L 63 0 
M 69 72 
L 69 0 
" style="fill: #000000; stroke: #000000; stroke-width: 1.0; stroke-linecap: butt; stroke-linejoin: miter"/>
  </pattern>
  <pattern id="hb86121fc80" patternUnits="userSpaceOnUse" x="0" y="0" width="72" height="72">
   <rect x="0" y="0" width="73" height="73" fill="#1f77b4"/>
   <path d="M -36 36 
L 36 -36 
M -30 42 
L 42 -30 
M -24 48 
L 48 -24 
M -18 54 
L 54 -18 
M -12 60 
L 60 -12 
M -6 66 
L 66 -6 
M 0 72 
L 72 0 
M 6 78 
L 78 6 
M 12 84 
L 84 12 
M 18 90 
L 90 18 
M 24 96 
L 96 24 
M 30 102 
L 102 30 
M 36 108 
L 108 36 
" style="fill: #000000; stroke: #000000; stroke-width: 1.0; stroke-linecap: butt; stroke-linejoin: miter"/>
  </pattern>
  <pattern id="h91d0a0d2df" patternUnits="userSpaceOnUse" x="0" y="0" width="72" height="72">
   <rect x="0" y="0" width="73" height="73" fill="#1f77b4"/>
   <path d="M 0 69 
L 72 69 
M 0 63 
L 72 63 
M 0 57 
L 72 57 
M 0 51 
L 72 51 
M 0 45 
L 72 45 
M 0 39 
L 72 39 
M 0 33 
L 72 33 
M 0 27 
L 72 27 
M 0 21 
L 72 21 
M 0 15 
L 72 15 
M 0 9 
L 72 9 
M 0 3 
L 72 3 
M 3 72 
L 3 0 
M 9 72 
L 9 0 
M 15 72 
L 15 0 
M 21 72 
L 21 0 
M 27 72 
L 27 0 
M 33 72 
L 33 0 
M 39 72 
L 39 0 
M 45 72 
L 45 0 
M 51 72 
L 51 0 
M 57 72 
L 57 0 
M 63 72 
L 63 0 
M 69 72 
L 69 0 
" style="fill: #000000; stroke: #000000; stroke-width: 1.0; stroke-linecap: butt; stroke-linejoin: miter"/>
  </pattern>
  <pattern id="he737cfb5b1" patternUnits="userSpaceOnUse" x="0" y="0" width="72" height="72">
   <rect x="0" y="0" width="73" height="73" fill="#2ca02c"/>
   <path d="M -36 36 
L 36 -36 
M -30 42 
L 42 -30 
M -24 48 
L 48 -24 
M -18 54 
L 54 -18 
M -12 60 
L 60 -12 
M -6 66 
L 66 -6 
M 0 72 
L 72 0 
M 6 78 
L 78 6 
M 12 84 
L 84 12 
M 18 90 
L 90 18 
M 24 96 
L 96 24 
M 30 102 
L 102 30 
M 36 108 
L 108 36 
" style="fill: #000000; stroke: #000000; stroke-width: 1.0; stroke-linecap: butt; stroke-linejoin: miter"/>
  </pattern>
  <pattern id="he2ee270d26" patternUnits="userSpaceOnUse" x="0" y="0" width="72" height="72">
   <rect x="0" y="0" width="73" height="73" fill="#2ca02c"/>
   <path d="M 0 69 
L 72 69 
M 0 63 
L 72 63 
M 0 57 
L 72 57 
M 0 51 
L 72 51 
M 0 45 
L 72 45 
M 0 39 
L 72 39 
M 0 33 
L 72 33 
M 0 27 
L 72 27 
M 0 21 
L 72 21 
M 0 15 
L 72 15 
M 0 9 
L 72 9 
M 0 3 
L 72 3 
M 3 72 
L 3 0 
M 9 72 
L 9 0 
M 15 72 
L 15 0 
M 21 72 
L 21 0 
M 27 72 
L 27 0 
M 33 72 
L 33 0 
M 39 72 
L 39 0 
M 45 72 
L 45 0 
M 51 72 
L 51 0 
M 57 72 
L 57 0 
M 63 72 
L 63 0 
M 69 72 
L 69 0 
" style="fill: #000000; stroke: #000000; stroke-width: 1.0; stroke-linecap: butt; stroke-linejoin: miter"/>
  </pattern>
  <pattern id="hd6138107a8" patternUnits="userSpaceOnUse" x="0" y="0" width="72" height="72">
   <rect x="0" y="0" width="73" height="73" fill="#d62728"/>
   <path d="M -36 36 
L 36 -36 
M -30 42 
L 42 -30 
M -24 48 
L 48 -24 
M -18 54 
L 54 -18 
M -12 60 
L 60 -12 
M -6 66 
L 66 -6 
M 0 72 
L 72 0 
M 6 78 
L 78 6 
M 12 84 
L 84 12 
M 18 90 
L 90 18 
M 24 96 
L 96 24 
M 30 102 
L 102 30 
M 36 108 
L 108 36 
" style="fill: #000000; stroke: #000000; stroke-width: 1.0; stroke-linecap: butt; stroke-linejoin: miter"/>
  </pattern>
  <pattern id="h2e315ec2ef" patternUnits="userSpaceOnUse" x="0" y="0" width="72" height="72">
   <rect x="0" y="0" width="73" height="73" fill="#d62728"/>
   <path d="M 0 69 
L 72 69 
M 0 63 
L 72 63 
M 0 57 
L 72 57 
M 0 51 
L 72 51 
M 0 45 
L 72 45 
M 0 39 
L 72 39 
M 0 33 
L 72 33 
M 0 27 
L 72 27 
M 0 21 
L 72 21 
M 0 15 
L 72 15 
M 0 9 
L 72 9 
M 0 3 
L 72 3 
M 3 72 
L 3 0 
M 9 72 
L 9 0 
M 15 72 
L 15 0 
M 21 72 
L 21 0 
M 27 72 
L 27 0 
M 33 72 
L 33 0 
M 39 72 
L 39 0 
M 45 72 
L 45 0 
M 51 72 
L 51 0 
M 57 72 
L 57 0 
M 63 72 
L 63 0 
M 69 72 
L 69 0 
" style="fill: #000000; stroke: #000000; stroke-width: 1.0; stroke-linecap: butt; stroke-linejoin: miter"/>
  </pattern>
  <pattern id="h5dedc3aa81" patternUnits="userSpaceOnUse" x="0" y="0" width="72" height="72">
   <rect x="0" y="0" width="73" height="73" fill="#ff7f0e"/>
   <path d="M -36 36 
L 36 -36 
M -30 42 
L 42 -30 
M -24 48 
L 48 -24 
M -18 54 
L 54 -18 
M -12 60 
L 60 -12 
M -6 66 
L 66 -6 
M 0 72 
L 72 0 
M 6 78 
L 78 6 
M 12 84 
L 84 12 
M 18 90 
L 90 18 
M 24 96 
L 96 24 
M 30 102 
L 102 30 
M 36 108 
L 108 36 
" style="fill: #000000; stroke: #000000; stroke-width: 1.0; stroke-linecap: butt; stroke-linejoin: miter"/>
  </pattern>
  <pattern id="h8a402738a5" patternUnits="userSpaceOnUse" x="0" y="0" width="72" height="72">
   <rect x="0" y="0" width="73" height="73" fill="#ff7f0e"/>
   <path d="M 0 69 
L 72 69 
M 0 63 
L 72 63 
M 0 57 
L 72 57 
M 0 51 
L 72 51 
M 0 45 
L 72 45 
M 0 39 
L 72 39 
M 0 33 
L 72 33 
M 0 27 
L 72 27 
M 0 21 
L 72 21 
M 0 15 
L 72 15 
M 0 9 
L 72 9 
M 0 3 
L 72 3 
M 3 72 
L 3 0 
M 9 72 
L 9 0 
M 15 72 
L 15 0 
M 21 72 
L 21 0 
M 27 72 
L 27 0 
M 33 72 
L 33 0 
M 39 72 
L 39 0 
M 45 72 
L 45 0 
M 51 72 
L 51 0 
M 57 72 
L 57 0 
M 63 72 
L 63 0 
M 69 72 
L 69 0 
" style="fill: #000000; stroke: #000000; stroke-width: 1.0; stroke-linecap: butt; stroke-linejoin: miter"/>
  </pattern>
 </defs>
</svg>
